<?xml version="1.0" encoding="utf-8"?>
<!-- Generator: Adobe Illustrator 27.5.0, SVG Export Plug-In . SVG Version: 6.00 Build 0)  -->
<svg version="1.1" xmlns="http://www.w3.org/2000/svg" xmlns:xlink="http://www.w3.org/1999/xlink" x="0px" y="0px"
	 viewBox="0 0 500 500" style="enable-background:new 0 0 500 500;" xml:space="preserve">
<g id="Floor">
	<ellipse id="Floor_15_" style="fill:#F5F5F5;" cx="250" cy="345.152" rx="236" ry="136.313"/>
</g>
<g id="Shadows">
	<path id="Shadow_12_" style="fill:#E0E0E0;" d="M83.39,411.501l-23.083-13.327c-2.316-1.337-2.316-3.505,0-4.842l274.842-158.68
		c2.316-1.337,6.07-1.337,8.386,0l23.082,13.327c2.316,1.337,2.316,3.505,0,4.842L91.776,411.501
		C89.46,412.838,85.705,412.838,83.39,411.501z"/>
	<ellipse id="Shadow_11_" style="fill:#E0E0E0;" cx="420.089" cy="306.921" rx="41.911" ry="24.197"/>
	<ellipse id="Shadow_2_" style="fill:#E0E0E0;" cx="199.635" cy="440.844" rx="39.079" ry="22.562"/>
</g>
<g id="Plants">
	<g id="Plants_8_">
		<g id="XMLID_399_">
			<g id="XMLID_477_">
				<path id="XMLID_499_" style="fill:#27DEBF;" d="M86.387,363.899c0,0-1.693-14.887-9.098-26.442
					c-7.406-11.554-17.581-18.766-27.075-19.517c-9.494-0.751-17.162,7.984-7.004,13.983c10.159,5.998,28.207,12.12,36.512,34.555
					L86.387,363.899z"/>
				<path id="XMLID_481_" style="opacity:0.1;" d="M86.387,363.899c0,0-1.693-14.887-9.098-26.442
					c-7.406-11.554-17.581-18.766-27.075-19.517c-9.494-0.751-17.162,7.984-7.004,13.983c10.159,5.998,28.207,12.12,36.512,34.555
					L86.387,363.899z"/>
			</g>
			<g id="XMLID_400_">
				<path id="XMLID_474_" style="fill:#FFFFFF;" d="M83.604,360.033c0.034-0.006,0.068-0.016,0.1-0.029
					c0.26-0.105,0.385-0.401,0.279-0.66c-10.019-24.675-29.093-34.978-37.779-36.978c-0.272-0.065-0.544,0.108-0.608,0.38
					c-0.063,0.273,0.107,0.545,0.38,0.608c8.509,1.959,27.205,12.084,37.068,36.371C83.135,359.951,83.373,360.075,83.604,360.033z"
					/>
			</g>
		</g>
		<g id="XMLID_270_">
			<g id="XMLID_394_">
				<g id="XMLID_396_">
					<path id="XMLID_397_" style="fill:#27DEBF;" d="M32.888,360.324c0.86,1.938,2.975,2.947,4.944,3.74
						c1.958,0.786,4.104,1.644,5.168,3.477c2.143,3.701-1.375,8.905,0.925,12.51c0.966,1.511,2.761,2.307,4.526,2.624
						c1.467,0.274,2.96,0.272,4.448,0.397c0.715-0.015,1.424-0.067,2.114-0.165c2.041-0.296,4.255-0.392,6.125,0.653
						c2.941,1.653,3.845,5.368,5.632,8.232c2.142,3.43,5.93,5.675,9.909,6.216c1.322,0.175,3.781,0.413,5.128-0.339
						c0.106-0.058,0.193-0.113,0.278-0.177c0.009-0.002,0.017-0.013,0.024-0.024c0.185-0.208,0.418-0.474,0.517-0.619
						c0.025-0.024,0.039-0.056,0.052-0.087c0.521-1.919-0.33-3.917-0.364-5.9c-0.004-0.125-0.005-0.241,0.002-0.359
						c0.082-2.304,0.147-4.596,0.201-6.895c0.107-4.23,0.155-8.468,0.126-12.703c-0.029-2.75,0.302-5.76-0.861-8.35
						c-1.289-2.849-4.492-2.911-5.703-5.707c-0.485-1.114-0.743-2.309-1.212-3.435c-1.401-3.304-4.795-5.679-8.387-5.855
						c-5.592-0.285-10.611,4.244-16.197,3.832c-1.447-0.113-2.856-0.553-4.282-0.816c-4.53-0.848-9.766,0.441-12.313,4.275
						C32.624,356.453,32.109,358.566,32.888,360.324z"/>
				</g>
			</g>
			<g id="XMLID_389_">
				<path id="XMLID_392_" style="fill:#FFFFFF;" d="M83.137,387.954c0.013-0.002,0.025-0.006,0.038-0.009
					c0.254-0.068,0.406-0.329,0.337-0.584c-7.727-28.992-38.274-33.182-45.421-32.666c-0.259,0.021-0.46,0.247-0.442,0.51
					c0.019,0.263,0.247,0.461,0.51,0.442c6.991-0.505,36.871,3.595,44.432,31.961C82.655,387.85,82.895,387.998,83.137,387.954z"/>
			</g>
			<g id="XMLID_360_">
				<path id="XMLID_387_" style="fill:#FFFFFF;" d="M49.196,373.263c0.093-0.017,0.181-0.062,0.252-0.133
					c0.077-0.077,7.867-7.758,20.788-5.856c0.26,0.035,0.504-0.142,0.542-0.403c0.038-0.261-0.143-0.503-0.402-0.542
					c-13.42-1.973-21.525,6.048-21.606,6.129c-0.185,0.188-0.183,0.489,0.003,0.675C48.889,373.246,49.048,373.29,49.196,373.263z"
					/>
			</g>
		</g>
	</g>
</g>
<g id="Gears_1_">
	<g id="Gears">
		<g id="XMLID_291_">
			<path id="XMLID_357_" style="fill:#E0E0E0;" d="M125.08,48.738v0.01c-0.271-0.165-0.639-0.155-1.017,0.087l-2.101,1.385
				l-0.465,1.259c-0.281,0.755,0.019,1.753,0.571,2.334c0.339,0.358,0.658,0.746,0.959,1.172c0.465,0.649,1.298,0.881,1.966,0.436
				l4.9-3.225c0.368-0.232,0.726-0.261,0.997-0.106L125.08,48.738z M117.536,66.73c-0.688-3.97-3.215-5.955-6.498-5.684
				c0.291,0.658,0.523,1.433,0.678,2.324c1.085,6.294-2.905,15.222-8.899,19.938c-2.208,1.733-4.377,2.653-6.285,2.808
				c1.966,4.222,6.943,4.619,12.114,0.552C114.641,81.952,118.621,73.024,117.536,66.73z M117.643,39.829v0.01
				c-0.116-0.068-0.242-0.126-0.387-0.155l-3.689-0.833c-0.784-0.174-1.724,0.262-2.092,0.968l-3.476,6.623
				c-0.165,0.32-0.446,0.61-0.775,0.881h-0.01c-0.184,0.155-0.378,0.291-0.591,0.397l1.084,3.612
				c0.233,0.765,1.007,1.094,1.743,0.794c0.775-0.31,1.54-0.562,2.276-0.746c0.436-0.116,0.91-0.368,1.317-0.688
				c0.329-0.261,0.62-0.571,0.784-0.891l3.467-6.624c0.378-0.707,1.317-1.143,2.092-0.968l3.699,0.833
				c0.136,0.029,0.261,0.077,0.368,0.135L117.643,39.829z M107.243,103.905c-0.155-0.126-0.281-0.31-0.349-0.562l-1.249-4.145
				c-0.223-0.765-0.997-1.104-1.743-0.794c-0.765,0.31-1.53,0.562-2.276,0.746c-0.232,0.058-0.474,0.165-0.716,0.3l0.165,0.533
				c0.097,0.31,0.261,0.523,0.474,0.639v0.01L107.243,103.905z M100.164,43.18c-0.126-0.068-0.262-0.106-0.407-0.106
				c-0.223,0-0.455,0.077-0.678,0.262l-5.539,4.348c-0.077,0.058-0.145,0.126-0.213,0.203c-0.058,0.048-0.097,0.107-0.145,0.165
				c-0.194,0.252-0.358,0.552-0.484,0.872c-0.019,0.068-0.048,0.145-0.068,0.213h0.01c-0.097,0.31-0.165,0.62-0.145,0.891
				l0.329,5.268c0.049,0.804-0.349,1.937-0.862,2.547c-0.91,1.085-1.762,2.227-2.566,3.399c-0.271,0.397-0.726,0.736-1.22,0.939
				c-0.165,0.068-0.32,0.116-0.484,0.145c-0.078,0.019-0.155,0.039-0.232,0.039c-0.106,0.019-0.213,0.029-0.32,0.019l-3.554-0.174
				h-0.087c-0.097,0-0.194,0.01-0.291,0.029c-0.087,0.01-0.174,0.029-0.261,0.058c-0.01,0-0.019,0-0.029,0.01
				c-0.097,0.029-0.194,0.068-0.291,0.116c-0.184,0.087-0.358,0.194-0.513,0.32c-0.242,0.203-0.445,0.455-0.571,0.726l-3.341,7.495
				c-0.3,0.668-0.048,1.424,0.562,1.801l3.951,2.276c0.126,0.329,0.165,0.688,0.087,1.027c-0.271,1.201-0.484,2.401-0.62,3.573
				c-0.087,0.794-0.6,1.888-1.191,2.431l-0.058,0.048l-4.851,4.454c-0.087,0.077-0.165,0.165-0.232,0.261
				c-0.01,0.019-0.019,0.029-0.029,0.048c-0.077,0.097-0.145,0.203-0.194,0.32c-0.31,0.542-0.465,1.24-0.368,1.791l0.93,5.345
				c0.058,0.339,0.213,0.581,0.426,0.726l5.8,3.341c-0.203-0.136-0.349-0.378-0.407-0.707l-0.92-5.345
				c-0.058-0.31-0.029-0.678,0.058-1.027c0.136-0.542,0.407-1.065,0.765-1.394l4.842-4.454l0.058-0.048
				c0.591-0.542,1.104-1.637,1.201-2.431c0.135-1.172,0.339-2.372,0.62-3.573c0.174-0.784-0.252-1.666-0.988-1.985l-2.876-1.22
				c-0.736-0.32-1.075-1.172-0.746-1.898l3.341-7.495c0.126-0.271,0.319-0.523,0.571-0.726c0.416-0.339,0.968-0.562,1.472-0.533
				l3.563,0.174c0.329,0.019,0.688-0.058,1.026-0.203c0.494-0.203,0.949-0.542,1.22-0.939c0.804-1.172,1.666-2.314,2.566-3.399
				c0.523-0.61,0.91-1.743,0.862-2.547l-0.329-5.258c-0.019-0.281,0.029-0.6,0.135-0.91c0.174-0.571,0.513-1.123,0.92-1.443
				l5.529-4.348c0.378-0.3,0.784-0.339,1.094-0.155L100.164,43.18z M91.865,99.053c0.271-0.755-0.029-1.753-0.581-2.334
				c-0.339-0.358-0.659-0.746-0.949-1.172c-0.465-0.658-1.298-0.881-1.966-0.445l-2.799,1.84l-2.034,5.5
				c-0.223,0.6,0,1.201,0.494,1.501l-0.01,0.01l5.839,3.37c-0.504-0.31-0.717-0.91-0.494-1.511L91.865,99.053z"/>
			<path style="fill:#FAFAFA;" d="M86.752,85.477l-4.842,4.454c-0.358,0.329-0.63,0.852-0.765,1.394l-5.81-3.35
				c0.068-0.271,0.165-0.533,0.291-0.775c0.048-0.116,0.116-0.223,0.194-0.32c0.01-0.019,0.019-0.029,0.029-0.048
				c0.068-0.097,0.145-0.184,0.232-0.261l4.851-4.454L86.752,85.477z"/>
			<path style="fill:#FAFAFA;" d="M93.996,65.539c-0.339,0.145-0.697,0.223-1.026,0.203l-3.563-0.174
				c-0.504-0.029-1.056,0.194-1.472,0.533l-5.82-3.36c0.155-0.126,0.329-0.232,0.513-0.32c0.097-0.048,0.194-0.087,0.291-0.116
				c0.01-0.01,0.019-0.01,0.029-0.01c0.087-0.029,0.174-0.049,0.261-0.058c0.097-0.019,0.194-0.029,0.291-0.029h0.087l3.554,0.174
				c0.107,0.01,0.213,0,0.32-0.019c0.077-0.01,0.155-0.019,0.232-0.039c0.155-0.039,0.31-0.097,0.465-0.155l0.019,0.01
				L93.996,65.539z"/>
			<path id="XMLID_335_" style="fill:#FAFAFA;" d="M130.889,52.083c-0.271-0.155-0.629-0.126-0.997,0.116l-4.9,3.225
				c-0.668,0.436-1.501,0.213-1.966-0.445c-0.3-0.426-0.61-0.813-0.959-1.172c-0.552-0.581-0.852-1.578-0.571-2.334l0.465-1.249
				l2.101-1.385c0.378-0.242,0.746-0.261,1.017-0.097v-0.01L130.889,52.083z"/>
			<path style="fill:#FAFAFA;" d="M123.453,43.18c-0.106-0.058-0.232-0.106-0.368-0.135l-3.699-0.833
				c-0.775-0.174-1.714,0.261-2.092,0.968l-3.467,6.624c-0.165,0.32-0.455,0.63-0.784,0.891l-5.82-3.37
				c0.329-0.271,0.61-0.562,0.775-0.881l3.476-6.623c0.368-0.707,1.307-1.143,2.092-0.968l3.689,0.833
				c0.145,0.029,0.271,0.087,0.387,0.155v-0.01L123.453,43.18z"/>
			<path style="fill:#FAFAFA;" d="M105.993,46.54c-0.31-0.184-0.717-0.145-1.094,0.155l-5.529,4.348
				c-0.407,0.32-0.746,0.871-0.92,1.443l-5.82-3.35c0.019-0.068,0.048-0.145,0.068-0.213c0.126-0.319,0.291-0.62,0.484-0.872
				c0.049-0.058,0.087-0.116,0.145-0.165c0.068-0.077,0.136-0.145,0.213-0.203l5.539-4.348c0.223-0.184,0.455-0.262,0.678-0.262
				c0.145,0,0.281,0.039,0.407,0.106L105.993,46.54z"/>
			<path id="XMLID_297_" style="fill:#F0F0F0;" d="M132.271,58.179l-0.921-5.347c-0.136-0.791-0.79-1.074-1.46-0.633l-4.898,3.224
				c-0.67,0.441-1.506,0.214-1.966-0.444c-0.296-0.422-0.615-0.812-0.955-1.169c-0.553-0.581-0.852-1.58-0.574-2.333l2.498-6.757
				c0.278-0.752-0.131-1.504-0.914-1.679l-3.692-0.825c-0.783-0.175-1.72,0.259-2.092,0.969l-3.471,6.615
				c-0.373,0.71-1.32,1.38-2.098,1.577c-0.743,0.189-1.502,0.439-2.274,0.751c-0.744,0.301-1.514-0.03-1.746-0.798l-1.248-4.143
				c-0.231-0.768-0.93-0.989-1.561-0.493l-5.533,4.35c-0.631,0.496-1.101,1.547-1.051,2.347l0.33,5.264
				c0.05,0.801-0.346,1.932-0.861,2.547c-0.907,1.084-1.765,2.222-2.569,3.4c-0.452,0.662-1.45,1.181-2.251,1.141l-3.557-0.176
				c-0.801-0.04-1.716,0.522-2.042,1.255l-3.344,7.497c-0.327,0.733,0.007,1.582,0.744,1.896l2.873,1.226
				c0.738,0.315,1.164,1.198,0.987,1.98c-0.274,1.206-0.481,2.401-0.616,3.576c-0.091,0.797-0.608,1.886-1.199,2.429l-4.902,4.507
				c-0.591,0.543-0.959,1.624-0.823,2.415l0.921,5.347c0.136,0.791,0.79,1.074,1.46,0.633l4.899-3.223
				c0.67-0.441,1.506-0.214,1.966,0.443c0.296,0.422,0.615,0.812,0.955,1.169c0.553,0.581,0.852,1.581,0.574,2.333l-2.498,6.756
				c-0.278,0.752,0.131,1.504,0.914,1.679l3.691,0.826c0.783,0.175,1.72-0.259,2.093-0.969l3.472-6.615
				c0.373-0.71,1.32-1.379,2.098-1.577c0.743-0.189,1.502-0.439,2.274-0.751c0.743-0.301,1.514,0.029,1.745,0.798l1.249,4.143
				c0.231,0.768,0.93,0.989,1.561,0.493l5.532-4.35c0.631-0.496,1.101-1.547,1.051-2.347l-0.33-5.264
				c-0.05-0.801,0.346-1.932,0.861-2.547c0.907-1.084,1.765-2.222,2.569-3.4c0.452-0.662,1.45-1.181,2.251-1.141l3.557,0.176
				c0.801,0.039,1.716-0.522,2.042-1.255l3.344-7.497c0.327-0.733-0.007-1.582-0.744-1.896l-2.874-1.225
				c-0.738-0.315-1.164-1.198-0.986-1.98c0.274-1.205,0.481-2.401,0.616-3.576c0.091-0.797,0.608-1.886,1.198-2.429l4.902-4.508
				C132.039,60.05,132.408,58.969,132.271,58.179z M108.643,86.668c-5.996,4.715-11.737,3.431-12.822-2.867
				c-1.085-6.298,2.898-15.226,8.894-19.939c5.996-4.715,11.736-3.431,12.821,2.867C118.621,73.026,114.64,81.953,108.643,86.668z"
				/>
		</g>
		<g id="XMLID_325_">
			<path id="XMLID_359_" style="fill:#E0E0E0;" d="M182.202,82.324v0.012c-0.327-0.199-0.772-0.187-1.228,0.105l-2.539,1.673
				l-0.561,1.521c-0.339,0.912,0.023,2.117,0.69,2.819c0.41,0.433,0.796,0.901,1.158,1.415c0.562,0.784,1.568,1.064,2.375,0.526
				l5.919-3.896c0.445-0.281,0.877-0.316,1.205-0.129L182.202,82.324z M173.089,104.06c-0.831-4.796-3.884-7.194-7.849-6.867
				c0.351,0.795,0.632,1.731,0.819,2.808c1.31,7.604-3.51,18.39-10.751,24.087c-2.667,2.094-5.288,3.205-7.592,3.393
				c2.375,5.1,8.388,5.58,14.635,0.667C169.592,122.449,174.4,111.663,173.089,104.06z M173.218,71.562v0.012
				c-0.14-0.082-0.292-0.152-0.468-0.187l-4.457-1.006c-0.948-0.211-2.082,0.316-2.527,1.17l-4.2,8.002
				c-0.199,0.386-0.538,0.737-0.936,1.065h-0.012c-0.222,0.187-0.456,0.351-0.714,0.48l1.31,4.363
				c0.281,0.924,1.217,1.322,2.106,0.959c0.936-0.374,1.86-0.679,2.749-0.901c0.526-0.14,1.1-0.444,1.591-0.831
				c0.398-0.316,0.749-0.69,0.948-1.076l4.188-8.002c0.456-0.854,1.591-1.38,2.527-1.17l4.469,1.006
				c0.164,0.035,0.316,0.093,0.445,0.164L173.218,71.562z M160.654,148.969c-0.187-0.152-0.339-0.374-0.421-0.678l-1.509-5.007
				c-0.269-0.924-1.205-1.334-2.106-0.959c-0.924,0.374-1.848,0.679-2.749,0.901c-0.281,0.07-0.573,0.199-0.866,0.363l0.199,0.643
				c0.117,0.374,0.316,0.632,0.573,0.772v0.012L160.654,148.969z M152.103,75.609c-0.152-0.082-0.316-0.129-0.491-0.129
				c-0.269,0-0.55,0.094-0.819,0.316l-6.691,5.253c-0.094,0.07-0.176,0.152-0.257,0.246c-0.07,0.059-0.117,0.129-0.176,0.199
				c-0.234,0.304-0.433,0.667-0.585,1.053c-0.023,0.082-0.059,0.176-0.082,0.257h0.012c-0.117,0.374-0.199,0.749-0.175,1.076
				l0.398,6.364c0.059,0.971-0.421,2.34-1.041,3.077c-1.1,1.31-2.129,2.69-3.1,4.106c-0.328,0.48-0.877,0.889-1.474,1.135
				c-0.199,0.082-0.386,0.14-0.585,0.175c-0.094,0.023-0.187,0.047-0.281,0.047c-0.129,0.023-0.257,0.035-0.386,0.023l-4.293-0.211
				h-0.105c-0.117,0-0.234,0.012-0.351,0.035c-0.105,0.012-0.211,0.035-0.316,0.07c-0.012,0-0.023,0-0.035,0.012
				c-0.117,0.035-0.234,0.082-0.351,0.14c-0.222,0.105-0.433,0.234-0.62,0.386c-0.292,0.246-0.538,0.55-0.69,0.877l-4.036,9.054
				c-0.363,0.807-0.058,1.72,0.679,2.176l4.773,2.749c0.152,0.398,0.199,0.831,0.105,1.24c-0.328,1.451-0.585,2.901-0.749,4.317
				c-0.105,0.959-0.725,2.281-1.439,2.936l-0.07,0.058l-5.861,5.381c-0.105,0.094-0.199,0.199-0.281,0.316
				c-0.012,0.023-0.023,0.035-0.035,0.059c-0.093,0.117-0.175,0.246-0.234,0.386c-0.374,0.655-0.562,1.497-0.445,2.164l1.123,6.457
				c0.07,0.409,0.257,0.702,0.515,0.877l7.007,4.036c-0.246-0.164-0.421-0.456-0.491-0.854l-1.111-6.457
				c-0.07-0.374-0.035-0.819,0.07-1.24c0.164-0.655,0.491-1.287,0.924-1.685l5.849-5.381l0.07-0.058
				c0.714-0.655,1.334-1.977,1.451-2.936c0.164-1.415,0.409-2.866,0.749-4.317c0.211-0.948-0.304-2.012-1.193-2.398l-3.474-1.474
				c-0.889-0.386-1.299-1.416-0.901-2.293l4.036-9.055c0.152-0.327,0.386-0.632,0.69-0.877c0.503-0.41,1.17-0.679,1.778-0.644
				l4.305,0.211c0.398,0.023,0.831-0.07,1.24-0.246c0.597-0.246,1.146-0.655,1.474-1.135c0.971-1.415,2.012-2.796,3.1-4.106
				c0.632-0.737,1.1-2.106,1.041-3.077l-0.398-6.352c-0.024-0.339,0.035-0.725,0.164-1.1c0.211-0.69,0.62-1.357,1.111-1.743
				l6.68-5.252c0.456-0.363,0.948-0.409,1.322-0.187L152.103,75.609z M142.077,143.108c0.328-0.912-0.035-2.117-0.702-2.819
				c-0.41-0.433-0.796-0.901-1.146-1.415c-0.562-0.796-1.568-1.064-2.375-0.538l-3.381,2.223l-2.457,6.645
				c-0.269,0.725,0,1.451,0.597,1.813l-0.012,0.012l7.054,4.071c-0.608-0.374-0.866-1.1-0.596-1.825L142.077,143.108z"/>
			<path style="fill:#FAFAFA;" d="M135.901,126.707l-5.849,5.381c-0.433,0.398-0.76,1.029-0.924,1.685l-7.019-4.048
				c0.082-0.328,0.199-0.643,0.351-0.936c0.058-0.14,0.14-0.269,0.234-0.386c0.012-0.023,0.023-0.035,0.035-0.059
				c0.082-0.117,0.175-0.222,0.281-0.316l5.861-5.381L135.901,126.707z"/>
			<path style="fill:#FAFAFA;" d="M144.651,102.621c-0.409,0.176-0.842,0.269-1.24,0.246l-4.305-0.211
				c-0.608-0.035-1.275,0.234-1.778,0.644l-7.031-4.059c0.187-0.152,0.398-0.281,0.62-0.386c0.117-0.058,0.234-0.105,0.351-0.14
				c0.012-0.012,0.023-0.012,0.035-0.012c0.105-0.035,0.211-0.059,0.316-0.07c0.117-0.023,0.234-0.035,0.351-0.035h0.105
				l4.293,0.211c0.129,0.012,0.257,0,0.386-0.023c0.094-0.012,0.187-0.023,0.281-0.047c0.187-0.047,0.374-0.117,0.562-0.187
				l0.023,0.012L144.651,102.621z"/>
			<path id="XMLID_358_" style="fill:#FAFAFA;" d="M189.221,86.365c-0.327-0.187-0.76-0.152-1.205,0.14l-5.919,3.896
				c-0.807,0.527-1.813,0.257-2.375-0.538c-0.363-0.515-0.737-0.983-1.158-1.415c-0.667-0.702-1.029-1.907-0.69-2.819l0.562-1.509
				l2.538-1.673c0.456-0.292,0.901-0.316,1.228-0.117v-0.012L189.221,86.365z"/>
			<path style="fill:#FAFAFA;" d="M180.237,75.609c-0.129-0.07-0.281-0.129-0.445-0.164l-4.469-1.006
				c-0.936-0.211-2.071,0.316-2.527,1.17l-4.188,8.002c-0.199,0.386-0.55,0.76-0.948,1.076l-7.031-4.071
				c0.398-0.328,0.737-0.679,0.936-1.065l4.2-8.002c0.445-0.854,1.579-1.38,2.527-1.17l4.457,1.006
				c0.175,0.035,0.327,0.105,0.468,0.187v-0.012L180.237,75.609z"/>
			<path style="fill:#FAFAFA;" d="M159.145,79.669c-0.374-0.222-0.866-0.175-1.322,0.187l-6.68,5.252
				c-0.491,0.386-0.901,1.053-1.111,1.743l-7.031-4.048c0.023-0.082,0.059-0.175,0.082-0.257c0.152-0.386,0.351-0.749,0.585-1.053
				c0.059-0.07,0.105-0.14,0.176-0.199c0.082-0.094,0.164-0.175,0.257-0.246l6.691-5.253c0.269-0.222,0.55-0.316,0.819-0.316
				c0.175,0,0.339,0.047,0.491,0.129L159.145,79.669z"/>
			<path id="XMLID_332_" style="fill:#F0F0F0;" d="M190.891,93.729l-1.112-6.459c-0.165-0.955-0.954-1.297-1.764-0.765l-5.917,3.894
				c-0.81,0.533-1.819,0.258-2.375-0.536c-0.357-0.51-0.743-0.981-1.154-1.412c-0.668-0.702-1.03-1.909-0.694-2.818l3.018-8.163
				c0.336-0.909-0.158-1.817-1.104-2.029l-4.46-0.997c-0.946-0.212-2.078,0.313-2.528,1.171l-4.194,7.991
				c-0.45,0.858-1.595,1.667-2.534,1.906c-0.898,0.228-1.815,0.53-2.747,0.907c-0.898,0.364-1.829-0.036-2.109-0.964l-1.508-5.005
				c-0.279-0.928-1.124-1.195-1.886-0.596l-6.684,5.254c-0.762,0.599-1.331,1.869-1.27,2.836l0.399,6.359
				c0.061,0.967-0.418,2.334-1.04,3.077c-1.095,1.31-2.132,2.685-3.104,4.108c-0.546,0.8-1.752,1.427-2.72,1.379l-4.296-0.212
				c-0.968-0.048-2.073,0.631-2.467,1.516l-4.04,9.057c-0.395,0.885,0.008,1.911,0.899,2.291l3.471,1.481
				c0.891,0.38,1.406,1.447,1.192,2.392c-0.331,1.456-0.581,2.901-0.744,4.32c-0.11,0.963-0.735,2.279-1.448,2.935l-5.922,5.445
				c-0.713,0.656-1.158,1.962-0.994,2.917l1.112,6.459c0.165,0.955,0.954,1.297,1.764,0.765l5.918-3.894
				c0.81-0.533,1.82-0.258,2.375,0.536c0.357,0.51,0.742,0.981,1.153,1.413c0.668,0.702,1.03,1.91,0.694,2.818l-3.017,8.162
				c-0.336,0.909,0.158,1.817,1.104,2.029l4.459,0.997c0.946,0.212,2.078-0.313,2.528-1.171l4.194-7.991
				c0.45-0.858,1.595-1.666,2.534-1.905c0.898-0.228,1.815-0.53,2.747-0.908c0.898-0.364,1.829,0.036,2.109,0.964l1.508,5.005
				c0.28,0.928,1.124,1.194,1.886,0.596l6.683-5.254c0.762-0.599,1.33-1.869,1.27-2.836l-0.399-6.359
				c-0.061-0.967,0.418-2.334,1.04-3.077c1.096-1.31,2.132-2.685,3.104-4.108c0.546-0.8,1.752-1.427,2.72-1.379l4.297,0.212
				c0.968,0.048,2.073-0.631,2.467-1.516l4.04-9.056c0.395-0.885-0.008-1.911-0.899-2.291l-3.471-1.481
				c-0.891-0.38-1.406-1.447-1.191-2.392c0.331-1.456,0.581-2.9,0.744-4.32c0.11-0.963,0.734-2.278,1.448-2.934l5.922-5.446
				C190.61,95.99,191.055,94.684,190.891,93.729z M162.346,128.146c-7.244,5.695-14.179,4.144-15.489-3.464
				s3.501-18.393,10.745-24.088c7.244-5.696,14.178-4.145,15.488,3.463C174.4,111.665,169.59,122.45,162.346,128.146z"/>
		</g>
		<g id="XMLID_518_">
			<path id="XMLID_566_" style="fill:#E0E0E0;" d="M43.495,215.425c0.358-0.717,0.261-1.82-0.155-2.508
				c-0.93-1.52-1.704-3.234-2.314-5.142c-0.232-0.765-0.988-1.123-1.724-0.794l-2.508,1.133c0.252,0.523,0.523,1.026,0.823,1.501
				c0.416,0.688,0.513,1.791,0.155,2.508l-6.904,13.925c-0.358,0.717-0.077,1.627,0.61,2.034l5.675,3.273
				c-0.649-0.426-0.91-1.307-0.562-2.004L43.495,215.425z M74.172,118.493c-0.106-0.058-0.232-0.087-0.368-0.087
				c-0.184,0-0.378,0.048-0.571,0.165l-11.639,6.72c-0.058,0.039-0.116,0.077-0.174,0.116c-0.058,0.048-0.116,0.087-0.174,0.145
				c-0.058,0.048-0.106,0.097-0.165,0.155c-0.106,0.116-0.203,0.232-0.3,0.368c-0.32,0.426-0.533,0.939-0.571,1.394l-1.172,12.947
				c-0.068,0.804-0.62,1.879-1.21,2.421c-2.266,2.092-4.425,4.387-6.468,6.846c-0.504,0.62-1.52,0.91-2.285,0.649l-7.466-2.615
				c-0.194-0.068-0.387-0.097-0.591-0.077h-0.039c-0.029-0.01-0.058,0-0.087,0.01c-0.039-0.01-0.078,0-0.107,0.01
				c-0.077,0.01-0.155,0.029-0.223,0.048c-0.232,0.068-0.455,0.174-0.649,0.339c-0.048,0.029-0.087,0.058-0.126,0.107
				c-0.116,0.097-0.203,0.213-0.281,0.348l-8.56,14.816c-0.184,0.329-0.232,0.717-0.184,1.085c0.039,0.426,0.232,0.842,0.562,1.123
				l5.994,5.171c0.61,0.523,0.862,1.549,0.581,2.305c-1.114,2.992-2.014,6.013-2.692,9.025c-0.097,0.426-0.339,0.93-0.659,1.375
				c-0.058,0.087-0.126,0.184-0.203,0.261c-0.068,0.077-0.126,0.155-0.194,0.232c-0.145,0.145-0.291,0.281-0.436,0.387
				l-10.632,7.485c-0.068,0.048-0.136,0.097-0.194,0.155c-0.068,0.058-0.126,0.126-0.184,0.194
				c-0.474,0.513-0.813,1.298-0.813,1.937v13.441c0,0.416,0.165,0.717,0.416,0.862l5.733,3.312
				c-0.252-0.155-0.416-0.455-0.416-0.872v-13.441c0-0.474,0.184-1.026,0.465-1.491c0.203-0.329,0.445-0.61,0.717-0.804
				l10.632-7.476c0.291-0.203,0.581-0.523,0.833-0.872c0.31-0.445,0.562-0.959,0.658-1.394c0.678-3.002,1.588-6.023,2.692-9.015
				c0.281-0.755,0.029-1.782-0.581-2.305l-5.994-5.171c-0.329-0.281-0.523-0.697-0.562-1.123c-0.068-0.378,0-0.765,0.184-1.084
				l8.56-14.816c0.29-0.503,0.852-0.823,1.424-0.862c0.232-0.019,0.465,0,0.678,0.077l7.466,2.615
				c0.765,0.262,1.782-0.029,2.295-0.649c2.034-2.46,4.193-4.764,6.459-6.846c0.591-0.542,1.143-1.617,1.21-2.421l1.172-12.947
				c0.019-0.252,0.097-0.513,0.213-0.775c0.252-0.581,0.688-1.123,1.172-1.404l11.64-6.72c0.329-0.184,0.639-0.213,0.881-0.116
				L74.172,118.493z M66.299,233.756c-0.213-0.145-0.349-0.407-0.387-0.765l-1.133-11.301c-0.077-0.804-0.775-1.269-1.559-1.094
				c-1.336,0.29-2.634,0.475-3.893,0.533l0.862,8.57c0.039,0.378,0.213,0.659,0.445,0.784v0.01L66.299,233.756z M84.533,152.715
				c1.665,2.305,2.547,5.829,2.547,10.429c0,12.54-8.802,27.782-19.667,34.057c-4.232,2.45-7.844,3.263-10.671,2.595
				c3.515,4.096,9.548,4.658,16.394,0.707c10.865-6.275,19.667-21.517,19.667-34.066C92.803,158.796,89.539,153.935,84.533,152.715z
				 M95.853,116.586c-0.697-0.407-1.617-0.184-2.063,0.484l-8.609,12.937c-0.039,0.058-0.077,0.107-0.126,0.165
				c-0.058,0.068-0.126,0.145-0.203,0.203c-0.029,0.039-0.068,0.068-0.116,0.097c-0.039,0.039-0.077,0.068-0.116,0.097
				c-0.494,0.358-1.143,0.571-1.695,0.562c-0.562-0.019-1.123-0.01-1.704,0.029l0.271,2.741c0.087,0.804,0.775,1.268,1.559,1.094
				c1.946-0.426,3.825-0.61,5.607-0.562c0.542,0.01,1.191-0.203,1.685-0.562c0.232-0.165,0.426-0.349,0.562-0.562l8.609-12.947
				c0.436-0.658,1.336-0.871,2.034-0.484L95.853,116.586z M112.509,140.62c-0.058-0.029-0.126-0.058-0.184-0.068
				c-0.213-0.048-0.455-0.029-0.716,0.087l-7.844,3.535c0.194,0.368,0.368,0.736,0.533,1.123c0.155,0.329,0.29,0.668,0.416,1.017
				c0.039,0.068,0.068,0.135,0.077,0.203c0.145,0.358,0.271,0.717,0.387,1.094c0.029,0.068,0.048,0.136,0.068,0.203
				c0.068,0.213,0.174,0.387,0.31,0.533c0.048,0.048,0.097,0.097,0.145,0.126c0.029,0.029,0.068,0.048,0.097,0.068
				c0.097,0.068,0.194,0.116,0.3,0.136c0.039,0.019,0.077,0.029,0.107,0.029c0.165,0.039,0.329,0.039,0.494,0v-0.01
				c0.019,0,0.039-0.01,0.049-0.01c0.077-0.019,0.145-0.039,0.223-0.077l10.361-4.667c0.281-0.136,0.552-0.155,0.765-0.068
				c0.058,0.01,0.106,0.029,0.145,0.058L112.509,140.62z"/>
			<path style="fill:#FAFAFA;" d="M101.547,119.878c-0.697-0.387-1.598-0.174-2.034,0.484l-8.609,12.947
				c-0.135,0.213-0.329,0.397-0.562,0.562l-5.723-3.302l-0.01-0.01c0.087-0.058,0.174-0.116,0.242-0.184
				c0.077-0.058,0.145-0.136,0.203-0.203c0.048-0.058,0.087-0.107,0.126-0.165l8.609-12.937c0.445-0.668,1.365-0.891,2.063-0.484
				L101.547,119.878z"/>
			<path style="fill:#FAFAFA;" d="M40.27,186.714c-0.252,0.349-0.542,0.668-0.833,0.872l-10.632,7.476
				c-0.271,0.194-0.513,0.474-0.717,0.804l-5.704-3.292c0.097-0.165,0.203-0.32,0.319-0.455c0.058-0.068,0.116-0.136,0.184-0.194
				c0.058-0.058,0.126-0.106,0.194-0.155l10.632-7.485c0.145-0.107,0.291-0.242,0.436-0.387c0.068-0.077,0.126-0.155,0.194-0.232
				c0.068-0.087,0.126-0.174,0.194-0.261h0.01L40.27,186.714z"/>
			<path style="fill:#FAFAFA;" d="M46.651,150.943c-0.571,0.039-1.133,0.358-1.424,0.862l-8.56,14.816
				c-0.184,0.319-0.252,0.707-0.184,1.084l-5.723-3.302c-0.048-0.368,0-0.755,0.184-1.085l8.56-14.816
				c0.077-0.135,0.165-0.252,0.281-0.348c0.039-0.049,0.077-0.077,0.126-0.107c0.194-0.165,0.416-0.271,0.649-0.339
				c0.068-0.019,0.145-0.039,0.223-0.048c0.029-0.01,0.068-0.019,0.107-0.01c0.029-0.01,0.058-0.019,0.087-0.01
				c0.01-0.01,0.019-0.01,0.029-0.01l0.01,0.01L46.651,150.943z"/>
			<path style="fill:#FAFAFA;" d="M79.837,121.757c-0.242-0.097-0.552-0.068-0.881,0.116l-11.64,6.72
				c-0.484,0.281-0.92,0.823-1.172,1.404l-5.713-3.302c0.097-0.213,0.213-0.426,0.349-0.62c0.097-0.136,0.194-0.252,0.3-0.368
				c0.058-0.058,0.106-0.107,0.165-0.155c0.058-0.058,0.116-0.097,0.174-0.145c0.058-0.039,0.116-0.077,0.174-0.116l11.639-6.72
				c0.194-0.116,0.387-0.165,0.571-0.165c0.136,0,0.261,0.029,0.368,0.087L79.837,121.757z"/>
			<path style="fill:#FAFAFA;" d="M112.509,140.62l5.733,3.312c-0.039-0.029-0.087-0.048-0.145-0.058
				c-0.213-0.087-0.484-0.068-0.765,0.068l-10.361,4.667c-0.523,0.242-1.065,0.116-1.414-0.262c-0.135-0.145-0.242-0.319-0.31-0.533
				c-0.019-0.068-0.039-0.136-0.068-0.203c-0.116-0.378-0.242-0.736-0.387-1.094c-0.01-0.068-0.039-0.135-0.077-0.203
				c-0.126-0.349-0.261-0.688-0.416-1.017c-0.165-0.387-0.339-0.755-0.533-1.123l7.844-3.535c0.261-0.116,0.504-0.136,0.716-0.087
				c0.058,0.019,0.126,0.048,0.184,0.077V140.62z"/>
			<rect x="118.241" y="143.932" style="fill:#FAFAFA;" width="0.01" height="0.01"/>
			<path id="XMLID_546_" style="fill:#F0F0F0;" d="M118.655,158.236v-13.442c0-0.802-0.593-1.185-1.324-0.855l-10.361,4.67
				c-0.731,0.33-1.484-0.034-1.726-0.799c-0.603-1.904-1.38-3.618-2.31-5.137c-0.419-0.684-0.514-1.792-0.157-2.51l6.906-13.924
				c0.356-0.719,0.082-1.626-0.613-2.028l-7.494-4.327c-0.695-0.401-1.618-0.185-2.062,0.483l-8.606,12.943
				c-0.444,0.668-1.451,1.14-2.253,1.119c-1.78-0.046-3.653,0.138-5.604,0.568c-0.783,0.173-1.474-0.297-1.554-1.095l-1.136-11.308
				c-0.08-0.798-0.708-1.12-1.403-0.719l-11.64,6.72c-0.695,0.401-1.316,1.374-1.388,2.173l-1.166,12.952
				c-0.072,0.799-0.621,1.875-1.211,2.419c-2.265,2.086-4.428,4.384-6.466,6.844c-0.512,0.618-1.53,0.912-2.287,0.648l-7.472-2.61
				c-0.757-0.265-1.696,0.084-2.098,0.779l-8.558,14.823c-0.401,0.695-0.233,1.683,0.374,2.206l5.996,5.166
				c0.608,0.524,0.861,1.553,0.582,2.305c-1.111,2.994-2.02,6.017-2.694,9.022c-0.176,0.783-0.833,1.795-1.489,2.256l-10.634,7.485
				c-0.656,0.462-1.188,1.486-1.188,2.289v13.441c0,0.802,0.593,1.185,1.324,0.856l10.361-4.671c0.731-0.33,1.484,0.034,1.726,0.799
				c0.602,1.904,1.379,3.618,2.309,5.137c0.419,0.684,0.514,1.792,0.157,2.511l-6.906,13.924c-0.356,0.719-0.082,1.626,0.613,2.027
				l7.494,4.326c0.695,0.401,1.618,0.185,2.062-0.483l8.606-12.942c0.444-0.668,1.452-1.14,2.254-1.119
				c1.781,0.046,3.654-0.138,5.604-0.569c0.783-0.173,1.474,0.297,1.554,1.095l1.136,11.309c0.08,0.798,0.708,1.12,1.403,0.719
				l11.64-6.721c0.695-0.401,1.316-1.374,1.388-2.173l1.166-12.952c0.072-0.799,0.62-1.875,1.211-2.419
				c2.265-2.085,4.428-4.384,6.465-6.843c0.512-0.618,1.53-0.913,2.287-0.649l7.472,2.609c0.757,0.264,1.696-0.084,2.098-0.779
				l8.558-14.822c0.401-0.695,0.234-1.682-0.374-2.206l-5.996-5.166c-0.608-0.524-0.861-1.553-0.582-2.306
				c1.111-2.995,2.021-6.017,2.695-9.022c0.176-0.783,0.833-1.795,1.489-2.256l10.634-7.485
				C118.123,160.063,118.655,159.038,118.655,158.236z M73.137,200.502c-10.861,6.27-19.666,1.187-19.666-11.353
				c0-12.54,8.805-27.79,19.666-34.061c10.86-6.27,19.665-1.187,19.665,11.353C92.802,178.982,83.998,194.231,73.137,200.502z"/>
		</g>
	</g>
</g>
<g id="Window">
	<g id="Window_2_">
		<g>
			<g>
				<path style="fill:#FAFAFA;" d="M91.576,404.176c-0.771,0-1.537-0.311-2.102-0.853c-0.592-0.568-0.918-1.339-0.917-2.169
					l-0.001-201.692l273.067-157.47V243.3c0,3.096-2.183,6.877-4.867,8.426L93.068,403.77
					C92.602,404.04,92.1,404.176,91.576,404.176C91.576,404.176,91.576,404.176,91.576,404.176z"/>
				<path style="fill:#E0E0E0;" d="M361.139,42.83l0,200.47c0,2.893-2.118,6.559-4.625,8.007L97.711,400.531l-4.884,2.82
					c-0.392,0.227-0.813,0.341-1.25,0.341c-0.647,0-1.291-0.262-1.767-0.719c-0.496-0.476-0.769-1.122-0.769-1.82L89.04,199.742
					L361.139,42.83 M362.107,41.154h0.005H362.107z M362.107,41.154L88.071,199.182l0.001,201.971
					c-0.001,2.04,1.677,3.508,3.504,3.508c0.579,0,1.174-0.147,1.734-0.471l4.884-2.82l258.802-149.223
					c2.814-1.625,5.109-5.579,5.109-8.846L362.107,41.154L362.107,41.154z"/>
			</g>
			<polygon style="opacity:0.8;fill:#455A64;" points="355.607,37.401 81.554,195.42 88.071,199.182 362.107,41.154 			"/>
			<path style="fill:#EBEBEB;" d="M89.908,404.238c0,0-1.835-0.898-1.835-3.084l-0.001-196.154c0-1.608,0-5.817,0-5.817
				l-6.517-3.762l-0.008,200.854c0,0.248,0.017,0.497,0.05,0.745c0.232,1.656,1.209,3.129,2.666,3.957l5.381,3.113L89.908,404.238
				L89.908,404.238z"/>
		</g>
		<g>
			<g>
				<path style="fill:#27DEBF;" d="M81.554,195.508v-13.626c0-1.626,1.138-3.609,2.542-4.429L353.065,22.398
					c1.404-0.82,3.683-0.826,5.091-0.013l1.401,0.809c1.408,0.813,2.55,2.79,2.55,4.416l0,13.65L88.071,199.268L81.554,195.508z"/>
				<path style="opacity:0.3;fill:#FFFFFF;" d="M81.554,195.508v-13.626c0-1.626,1.138-3.609,2.542-4.429L353.065,22.398
					c1.404-0.82,3.683-0.826,5.091-0.013l1.401,0.809c1.408,0.813,2.55,2.79,2.55,4.416l0,13.65L88.071,199.268L81.554,195.508z"/>
				<path style="fill:#27DEBF;" d="M88.071,185.644c0-1.626,1.138-3.609,2.542-4.429L359.565,26.15
					c1.404-0.82,2.542-0.167,2.542,1.459l0,13.65L88.071,199.268L88.071,185.644z"/>
				<path style="fill:#27DEBF;" d="M88.813,183.124c-0.459,0.801-0.742,1.707-0.742,2.52v13.625l-6.512-3.757v-13.636
					c0-0.813,0.283-1.708,0.742-2.508L88.813,183.124z"/>
				<path style="opacity:0.15;" d="M88.813,183.124c-0.459,0.801-0.742,1.707-0.742,2.52v13.625l-6.512-3.757v-13.636
					c0-0.813,0.283-1.708,0.742-2.508L88.813,183.124z"/>
			</g>
			<g>
				<path style="fill:#FAFAFA;" d="M350.148,40.641c0,1.525,1.071,2.143,2.392,1.381c1.321-0.763,2.392-2.617,2.392-4.142
					s-1.071-2.143-2.392-1.381C351.219,37.261,350.148,39.116,350.148,40.641z"/>
				<path style="fill:#FAFAFA;" d="M340.582,46.164c0,1.525,1.071,2.143,2.392,1.381c1.321-0.763,2.392-2.617,2.392-4.142
					c0-1.525-1.071-2.143-2.392-1.381C341.652,42.784,340.582,44.639,340.582,46.164z"/>
				<path style="fill:#FAFAFA;" d="M331.015,51.687c0,1.525,1.071,2.143,2.392,1.381c1.321-0.763,2.392-2.617,2.392-4.142
					c0-1.525-1.071-2.144-2.392-1.381C332.085,48.307,331.015,50.162,331.015,51.687z"/>
			</g>
		</g>
		<path style="fill:#E0E0E0;" d="M185.521,156.986v74.805c0,1.375-0.959,3.05-2.159,3.738l-73.556,42.569
			c-0.116,0.068-0.232,0.126-0.368,0.174h-0.01c-1.017,0.397-1.782-0.184-1.782-1.414v-74.815c0-0.678,0.252-1.443,0.629-2.121
			c0.397-0.668,0.93-1.269,1.53-1.607l73.565-42.578c0.988-0.571,1.83-0.271,2.082,0.629c0.029,0.097,0.039,0.184,0.048,0.271
			C185.511,156.754,185.521,156.87,185.521,156.986z"/>
		<path style="fill:#E0E0E0;" d="M349.901,62.171v105.995c0,1.375-0.959,3.04-2.15,3.728l-136.76,78.959
			c-0.116,0.068-0.242,0.126-0.368,0.174c-0.019,0.01-0.029,0.01-0.048,0.019c-0.997,0.349-1.753-0.223-1.753-1.433V143.609
			c0-0.678,0.252-1.443,0.639-2.121c0.387-0.668,0.92-1.268,1.52-1.607l136.77-78.969c0.988-0.571,1.83-0.271,2.082,0.639
			c0.029,0.097,0.039,0.184,0.048,0.271C349.891,61.938,349.901,62.055,349.901,62.171z"/>
		<g>
			<g>
				<g>
					<path style="fill:#27DEBF;" d="M115.535,371.666c-0.832,0-1.606-0.197-2.29-0.592c-1.643-0.949-2.547-2.906-2.546-5.512
						c0-5.162,3.638-11.463,8.11-14.045l0,0c2.258-1.304,4.407-1.5,6.047-0.551c1.643,0.948,2.547,2.905,2.547,5.512
						c0,5.163-3.638,11.464-8.11,14.045C117.977,371.283,116.698,371.666,115.535,371.666z M122.562,351.343
						c-0.992,0-2.105,0.34-3.269,1.012l0,0c-4.205,2.428-7.626,8.353-7.626,13.207c0,2.246,0.732,3.906,2.062,4.673
						c1.33,0.77,3.135,0.573,5.079-0.55c4.205-2.428,7.626-8.352,7.626-13.207c0-2.246-0.733-3.907-2.063-4.673
						C123.838,351.496,123.227,351.343,122.562,351.343z"/>
				</g>
				<g>
					<path style="fill:#27DEBF;" d="M116.551,360.838c-0.041-0.057-0.056-0.137-0.047-0.24c0.008-0.104,0.039-0.201,0.091-0.295
						l1.891-3.385c0.046-0.081,0.095-0.161,0.144-0.238c0.049-0.078,0.103-0.132,0.162-0.167l0.68-0.392
						c0.063-0.037,0.118-0.033,0.165,0.011c0.046,0.044,0.069,0.116,0.069,0.215v8.668c0,0.098-0.023,0.197-0.069,0.295
						c-0.047,0.098-0.102,0.166-0.165,0.203l-0.706,0.408c-0.063,0.037-0.118,0.032-0.165-0.012
						c-0.046-0.044-0.069-0.116-0.069-0.215v-6.627l-1.238,2.203c-0.052,0.093-0.109,0.149-0.17,0.172
						c-0.06,0.021-0.114,0.006-0.162-0.047L116.551,360.838z"/>
				</g>
			</g>
			<g>
				<g>
					<path style="fill:#E0E0E0;" d="M139.136,358.04c-0.832,0-1.606-0.197-2.291-0.593c-1.642-0.948-2.546-2.905-2.545-5.511
						c0-5.163,3.638-11.464,8.11-14.045l0,0c2.257-1.303,4.406-1.499,6.047-0.552c1.643,0.948,2.547,2.906,2.547,5.513
						c0,5.162-3.638,11.463-8.11,14.045C141.577,357.656,140.299,358.04,139.136,358.04z M146.164,337.717
						c-0.992,0-2.106,0.339-3.27,1.012l0,0c-4.205,2.428-7.626,8.352-7.626,13.207c0,2.246,0.732,3.906,2.061,4.673
						c1.332,0.769,3.137,0.572,5.08-0.55c4.205-2.428,7.626-8.353,7.626-13.207c0-2.247-0.732-3.906-2.062-4.674
						C147.438,337.87,146.829,337.717,146.164,337.717z"/>
				</g>
				<g>
					<path style="fill:#E0E0E0;" d="M143.15,346.581c0.174-0.316,0.286-0.6,0.335-0.851c0.05-0.253,0.075-0.473,0.075-0.66
						c0-0.367-0.073-0.636-0.219-0.808c-0.146-0.17-0.386-0.159-0.723,0.035c-0.32,0.184-0.554,0.441-0.702,0.769
						c-0.148,0.326-0.254,0.696-0.318,1.108c-0.019,0.127-0.053,0.235-0.105,0.322c-0.053,0.089-0.105,0.149-0.158,0.18
						l-0.688,0.397c-0.064,0.037-0.121,0.036-0.17-0.004c-0.049-0.038-0.072-0.113-0.065-0.223c0.018-0.412,0.084-0.831,0.2-1.257
						c0.116-0.425,0.271-0.827,0.465-1.208c0.196-0.382,0.423-0.724,0.685-1.033c0.262-0.307,0.544-0.548,0.845-0.722
						c0.366-0.212,0.683-0.303,0.95-0.274c0.267,0.03,0.488,0.138,0.662,0.329c0.175,0.189,0.304,0.438,0.388,0.741
						c0.084,0.305,0.127,0.632,0.127,0.981c0,0.224-0.009,0.442-0.026,0.652c-0.018,0.212-0.059,0.436-0.122,0.674
						c-0.065,0.238-0.158,0.503-0.28,0.792c-0.122,0.289-0.285,0.618-0.488,0.985l-1.612,3.198l2.423-1.399
						c0.064-0.037,0.119-0.033,0.165,0.012c0.047,0.045,0.07,0.117,0.07,0.214v0.953c0,0.098-0.023,0.197-0.07,0.295
						c-0.046,0.098-0.101,0.166-0.165,0.203l-4.07,2.35c-0.063,0.037-0.118,0.032-0.165-0.012c-0.046-0.044-0.069-0.116-0.069-0.215
						v-0.819c0-0.151,0.028-0.3,0.087-0.444c0.058-0.146,0.107-0.253,0.148-0.322L143.15,346.581z"/>
				</g>
			</g>
			<g>
				<g>
					<path style="fill:#E0E0E0;" d="M162.736,344.414c-0.832,0-1.605-0.197-2.29-0.592c-1.642-0.949-2.546-2.906-2.546-5.512
						c0-5.163,3.638-11.464,8.11-14.045l0,0c2.257-1.304,4.406-1.499,6.046-0.552c1.643,0.949,2.547,2.906,2.547,5.513
						c0,5.162-3.638,11.463-8.11,14.045C165.178,344.03,163.899,344.414,162.736,344.414z M169.764,324.091
						c-0.992,0-2.106,0.339-3.27,1.012l0,0c-4.205,2.427-7.626,8.352-7.626,13.207c0,2.246,0.732,3.905,2.062,4.673
						c1.329,0.767,3.133,0.572,5.079-0.55c4.205-2.428,7.626-8.353,7.626-13.207c0-2.247-0.732-3.907-2.063-4.674
						C171.039,324.244,170.429,324.091,169.764,324.091z"/>
				</g>
				<g>
					<path style="fill:#E0E0E0;" d="M168.18,327.997c0.064-0.037,0.119-0.032,0.164,0.011c0.047,0.045,0.07,0.117,0.07,0.216v0.951
						c0,0.098-0.021,0.202-0.064,0.313c-0.045,0.111-0.087,0.209-0.127,0.294l-1.273,2.801c0.261-0.096,0.499-0.135,0.711-0.115
						c0.212,0.022,0.391,0.102,0.545,0.243c0.149,0.142,0.267,0.345,0.348,0.611c0.081,0.266,0.123,0.591,0.123,0.977
						c0,0.463-0.061,0.913-0.18,1.344c-0.119,0.43-0.284,0.833-0.497,1.206c-0.212,0.373-0.462,0.709-0.749,1.01
						c-0.287,0.301-0.599,0.547-0.936,0.741c-0.407,0.235-0.76,0.365-1.059,0.391c-0.301,0.025-0.55-0.02-0.749-0.137
						c-0.201-0.117-0.354-0.293-0.458-0.528c-0.106-0.235-0.167-0.491-0.184-0.767c-0.006-0.103,0.015-0.203,0.064-0.299
						c0.049-0.095,0.108-0.163,0.17-0.2l0.689-0.397c0.059-0.034,0.106-0.032,0.144,0.004c0.038,0.037,0.077,0.097,0.119,0.181
						c0.034,0.087,0.081,0.162,0.138,0.221c0.059,0.061,0.136,0.101,0.231,0.122c0.096,0.021,0.217,0.011,0.363-0.028
						c0.144-0.038,0.322-0.119,0.531-0.24c0.354-0.204,0.639-0.478,0.859-0.823c0.217-0.346,0.325-0.72,0.325-1.122
						c0-0.403-0.108-0.628-0.325-0.677c-0.219-0.049-0.505,0.03-0.859,0.234l-0.724,0.418c-0.064,0.036-0.119,0.032-0.165-0.013
						c-0.047-0.043-0.07-0.115-0.07-0.214v-0.953c0-0.098,0.021-0.202,0.064-0.313c0.043-0.111,0.087-0.209,0.127-0.294l1.22-2.677
						l-2.406,1.389c-0.062,0.036-0.119,0.034-0.165-0.011c-0.047-0.045-0.07-0.117-0.07-0.216v-0.952
						c0-0.098,0.023-0.197,0.07-0.296c0.045-0.096,0.102-0.165,0.165-0.202L168.18,327.997z"/>
				</g>
			</g>
		</g>
	</g>
</g>
<g id="Character_2">
	<g id="Character_22_">
		<g id="XMLID_345_">
			<g id="Arm">
				<path id="XMLID_514_" style="fill:#B16668;" d="M413.63,121.887l-23.597,0.679c-0.872-0.746-5.492-5.358-5.492-5.358
					s-13.584-1.741-13.666-1.248c-0.082,0.493,12.007,15.175,13.336,16.625c0.736,0.803,2.834,2.172,4.596,2.278
					c3.516,0.211,22.814,0.397,22.814,0.397L413.63,121.887z"/>
				<path style="fill:#455A64;" d="M414.799,121.887c-1.888-0.521-24.341,0.357-24.341,0.357l-5.76-5.436
					c0,0-3.268-0.595-8.19-1.055c-4.922-0.459-6.534,0-6.534,0s10.931,13.649,12.617,15.897c1.686,2.248,2.751,3.61,6.514,3.761
					c4.764,0.192,23.43,0.304,23.43,0.304L414.799,121.887z"/>
			</g>
			<g id="Tab_1_">
				<g id="XMLID_506_">
					<path id="XMLID_509_" style="fill:#27DEBF;" d="M248.482,286.78l-0.745-0.43c-1.191-0.688-2.157-2.361-2.157-3.737l0-105.995
						c0-1.376,0.966-3.048,2.157-3.736l136.761-78.955c1.191-0.688,3.123-0.688,4.315,0l0.745,0.43
						c1.191,0.688,2.157,2.361,2.157,3.736l0,105.995c0,1.376-0.966,3.048-2.157,3.736l-136.76,78.955
						C251.605,287.467,249.674,287.467,248.482,286.78z"/>
					<path id="XMLID_508_" style="opacity:0.4;fill:#FFFFFF;" d="M391.694,97.746c-0.147-1.118-1.051-1.525-2.135-0.904
						l-136.766,78.964c-0.599,0.339-1.13,0.938-1.525,1.604l-5.05-2.915c0.384-0.678,0.926-1.265,1.525-1.616l136.754-78.953
						c1.198-0.689,3.129-0.689,4.316,0l0.745,0.429C390.643,94.99,391.558,96.447,391.694,97.746z"/>
					<path id="XMLID_507_" style="opacity:0.1;" d="M252.431,286.949c-1.186,0.508-2.87,0.452-3.943-0.17l-0.757-0.429
						c-1.186-0.689-2.147-2.361-2.147-3.739V176.62c0-0.689,0.237-1.457,0.633-2.124l5.05,2.915
						c-0.384,0.678-0.633,1.446-0.633,2.124v106.002C250.635,286.768,251.415,287.345,252.431,286.949z"/>
				</g>
				<g>
					
						<line style="fill:none;stroke:#37474F;stroke-width:0.9683;stroke-linecap:round;stroke-linejoin:round;stroke-miterlimit:10;" x1="264.588" y1="263.367" x2="378.658" y2="197.508"/>
					<g>
						<path style="fill:#455A64;" d="M259.321,255.051l4.637-2.677c0.347-0.201,0.629-0.038,0.629,0.363v0.818
							c0,0.401-0.281,0.889-0.629,1.089l-4.637,2.677c-0.347,0.201-0.629,0.038-0.629-0.363v-0.818
							C258.692,255.739,258.974,255.251,259.321,255.051z"/>
						<path style="fill:#455A64;" d="M259.321,243.702l4.637-2.677c0.347-0.201,0.629-0.038,0.629,0.363v0.818
							c0,0.401-0.281,0.889-0.629,1.089l-4.637,2.677c-0.347,0.201-0.629,0.038-0.629-0.363v-0.818
							C258.692,244.391,258.974,243.903,259.321,243.702z"/>
						<path style="fill:#455A64;" d="M259.321,232.346l4.637-2.677c0.347-0.201,0.629-0.038,0.629,0.363v0.818
							c0,0.401-0.281,0.889-0.629,1.089l-4.637,2.677c-0.347,0.201-0.629,0.038-0.629-0.363v-0.818
							C258.692,233.035,258.974,232.547,259.321,232.346z"/>
						<path style="fill:#455A64;" d="M259.321,220.995l4.637-2.678c0.347-0.201,0.629-0.038,0.629,0.363v0.818
							c0,0.401-0.281,0.889-0.629,1.089l-4.637,2.677c-0.347,0.201-0.629,0.038-0.629-0.363v-0.818
							C258.692,221.683,258.974,221.195,259.321,220.995z"/>
						<path style="fill:#455A64;" d="M259.321,209.643l4.637-2.677c0.347-0.201,0.629-0.038,0.629,0.363v0.818
							c0,0.401-0.281,0.889-0.629,1.089l-4.637,2.677c-0.347,0.201-0.629,0.038-0.629-0.363v-0.818
							C258.692,210.331,258.974,209.843,259.321,209.643z"/>
						<path style="fill:#455A64;" d="M259.321,198.278l4.637-2.677c0.347-0.201,0.629-0.038,0.629,0.363v0.818
							c0,0.401-0.281,0.889-0.629,1.089l-4.637,2.677c-0.347,0.201-0.629,0.038-0.629-0.363v-0.818
							C258.692,198.967,258.974,198.479,259.321,198.278z"/>
						<path style="fill:#455A64;" d="M259.321,186.928l4.637-2.678c0.347-0.201,0.629-0.038,0.629,0.363v0.818
							c0,0.401-0.281,0.889-0.629,1.089l-4.637,2.677c-0.347,0.201-0.629,0.038-0.629-0.363v-0.818
							C258.692,187.616,258.974,187.129,259.321,186.928z"/>
						<path style="fill:#455A64;" d="M296.873,161.488l49.499-28.533c0.452-0.261,0.818-0.049,0.818,0.472v1.064
							c0,0.521-0.366,1.156-0.818,1.416l-49.499,28.533c-0.452,0.261-0.818,0.049-0.818-0.472v-1.064
							C296.055,162.383,296.422,161.749,296.873,161.488z"/>
					</g>
					<g>
						<path style="fill:#455A64;" d="M273.084,263.004l4.638-2.678c0.347-0.201,0.629-0.038,0.629,0.363l0,0.818
							c0,0.401-0.282,0.889-0.629,1.089l-4.638,2.677c-0.347,0.201-0.629,0.038-0.629-0.363v-0.818
							C272.455,263.693,272.737,263.205,273.084,263.004z"/>
						<path style="fill:#455A64;" d="M286.856,255.055l4.637-2.677c0.347-0.201,0.629-0.038,0.629,0.363v0.818
							c0,0.401-0.282,0.889-0.629,1.089l-4.638,2.677c-0.347,0.201-0.629,0.038-0.629-0.363v-0.818
							C286.227,255.743,286.509,255.255,286.856,255.055z"/>
						<path style="fill:#455A64;" d="M300.628,247.099l4.637-2.677c0.347-0.201,0.629-0.038,0.629,0.363v0.818
							c0,0.401-0.281,0.889-0.629,1.089l-4.638,2.677c-0.347,0.201-0.629,0.038-0.629-0.363v-0.818
							C299.999,247.788,300.28,247.3,300.628,247.099z"/>
						<path style="fill:#455A64;" d="M314.4,239.145l4.637-2.677c0.347-0.201,0.629-0.038,0.629,0.363v0.818
							c0,0.401-0.282,0.889-0.629,1.089l-4.638,2.677c-0.347,0.201-0.629,0.038-0.629-0.363v-0.818
							C313.771,239.833,314.052,239.346,314.4,239.145z"/>
						<path style="fill:#455A64;" d="M328.172,231.196l4.637-2.677c0.347-0.201,0.629-0.038,0.629,0.363l0,0.818
							c0,0.401-0.282,0.889-0.629,1.089l-4.637,2.677c-0.347,0.201-0.629,0.038-0.629-0.363v-0.818
							C327.543,231.885,327.824,231.397,328.172,231.196z"/>
						<path style="fill:#455A64;" d="M341.944,223.248l4.637-2.678c0.347-0.201,0.629-0.038,0.629,0.363v0.818
							c0,0.401-0.281,0.889-0.629,1.089l-4.638,2.677c-0.347,0.201-0.629,0.038-0.629-0.363v-0.818
							C341.315,223.936,341.596,223.448,341.944,223.248z"/>
						<path style="fill:#455A64;" d="M355.716,215.296l4.638-2.678c0.347-0.201,0.629-0.038,0.629,0.363v0.818
							c0,0.401-0.282,0.889-0.629,1.089l-4.638,2.677c-0.347,0.201-0.629,0.038-0.629-0.363v-0.818
							C355.087,215.984,355.368,215.496,355.716,215.296z"/>
						<path style="fill:#455A64;" d="M369.488,207.343l4.637-2.678c0.347-0.201,0.629-0.038,0.629,0.363l0,0.818
							c0,0.401-0.282,0.889-0.629,1.089l-4.638,2.677c-0.347,0.201-0.629,0.038-0.629-0.363v-0.818
							C368.859,208.032,369.14,207.544,369.488,207.343z"/>
					</g>
					<g>
						<g>
							<g>
								
									<line style="fill:none;stroke:#FAFAFA;stroke-width:0.7263;stroke-linecap:round;stroke-linejoin:round;" x1="275.403" y1="252.581" x2="275.403" y2="251.129"/>
								
									<line style="fill:none;stroke:#FAFAFA;stroke-width:0.7263;stroke-linecap:round;stroke-linejoin:round;stroke-dasharray:3.0323,3.0323;" x1="275.403" y1="248.097" x2="275.403" y2="219.29"/>
								
									<line style="fill:none;stroke:#FAFAFA;stroke-width:0.7263;stroke-linecap:round;stroke-linejoin:round;" x1="275.403" y1="217.773" x2="275.403" y2="216.321"/>
							</g>
						</g>
						<g>
							<g>
								
									<line style="fill:none;stroke:#FAFAFA;stroke-width:0.7263;stroke-linecap:round;stroke-linejoin:round;" x1="289.175" y1="244.67" x2="289.175" y2="243.217"/>
								
									<line style="fill:none;stroke:#FAFAFA;stroke-width:0.7263;stroke-linecap:round;stroke-linejoin:round;stroke-dasharray:2.8374,2.8374;" x1="289.175" y1="240.38" x2="289.175" y2="185.051"/>
								
									<line style="fill:none;stroke:#FAFAFA;stroke-width:0.7263;stroke-linecap:round;stroke-linejoin:round;" x1="289.175" y1="183.632" x2="289.175" y2="182.179"/>
							</g>
						</g>
						<g>
							<g>
								
									<line style="fill:none;stroke:#FAFAFA;stroke-width:0.7263;stroke-linecap:round;stroke-linejoin:round;" x1="302.947" y1="236.758" x2="302.947" y2="235.306"/>
								
									<line style="fill:none;stroke:#FAFAFA;stroke-width:0.7263;stroke-linecap:round;stroke-linejoin:round;stroke-dasharray:2.7138,2.7138;" x1="302.947" y1="232.592" x2="302.947" y2="212.238"/>
								
									<line style="fill:none;stroke:#FAFAFA;stroke-width:0.7263;stroke-linecap:round;stroke-linejoin:round;" x1="302.947" y1="210.882" x2="302.947" y2="209.429"/>
							</g>
						</g>
						<g>
							<g>
								
									<line style="fill:none;stroke:#FAFAFA;stroke-width:0.7263;stroke-linecap:round;stroke-linejoin:round;" x1="316.719" y1="228.847" x2="316.719" y2="227.394"/>
								
									<line style="fill:none;stroke:#FAFAFA;stroke-width:0.7263;stroke-linecap:round;stroke-linejoin:round;stroke-dasharray:2.9615,2.9615;" x1="316.719" y1="224.433" x2="316.719" y2="214.068"/>
								
									<line style="fill:none;stroke:#FAFAFA;stroke-width:0.7263;stroke-linecap:round;stroke-linejoin:round;" x1="316.719" y1="212.587" x2="316.719" y2="211.135"/>
							</g>
						</g>
						<g>
							<g>
								
									<line style="fill:none;stroke:#FAFAFA;stroke-width:0.7263;stroke-linecap:round;stroke-linejoin:round;" x1="330.491" y1="220.935" x2="330.491" y2="219.483"/>
								
									<line style="fill:none;stroke:#FAFAFA;stroke-width:0.7263;stroke-linecap:round;stroke-linejoin:round;stroke-dasharray:2.8431,2.8431;" x1="330.491" y1="216.64" x2="330.491" y2="172.572"/>
								
									<line style="fill:none;stroke:#FAFAFA;stroke-width:0.7263;stroke-linecap:round;stroke-linejoin:round;" x1="330.491" y1="171.151" x2="330.491" y2="169.698"/>
							</g>
						</g>
						<g>
							<g>
								
									<line style="fill:none;stroke:#FAFAFA;stroke-width:0.7263;stroke-linecap:round;stroke-linejoin:round;" x1="344.263" y1="213.024" x2="344.263" y2="211.572"/>
								
									<line style="fill:none;stroke:#FAFAFA;stroke-width:0.7263;stroke-linecap:round;stroke-linejoin:round;stroke-dasharray:3.0323,3.0323;" x1="344.263" y1="208.539" x2="344.263" y2="179.732"/>
								
									<line style="fill:none;stroke:#FAFAFA;stroke-width:0.7263;stroke-linecap:round;stroke-linejoin:round;" x1="344.263" y1="178.216" x2="344.263" y2="176.763"/>
							</g>
						</g>
						<g>
							<g>
								
									<line style="fill:none;stroke:#FAFAFA;stroke-width:0.7263;stroke-linecap:round;stroke-linejoin:round;" x1="358.034" y1="205.113" x2="358.034" y2="203.66"/>
								
									<line style="fill:none;stroke:#FAFAFA;stroke-width:0.7263;stroke-linecap:round;stroke-linejoin:round;stroke-dasharray:3.1002,3.1002;" x1="358.034" y1="200.56" x2="358.034" y2="189.709"/>
								
									<line style="fill:none;stroke:#FAFAFA;stroke-width:0.7263;stroke-linecap:round;stroke-linejoin:round;" x1="358.034" y1="188.159" x2="358.034" y2="186.706"/>
							</g>
						</g>
						<g>
							<g>
								
									<line style="fill:none;stroke:#FAFAFA;stroke-width:0.7263;stroke-linecap:round;stroke-linejoin:round;" x1="371.806" y1="197.201" x2="371.806" y2="195.749"/>
								
									<line style="fill:none;stroke:#FAFAFA;stroke-width:0.7263;stroke-linecap:round;stroke-linejoin:round;stroke-dasharray:3.0323,3.0323;" x1="371.806" y1="192.716" x2="371.806" y2="163.909"/>
								
									<line style="fill:none;stroke:#FAFAFA;stroke-width:0.7263;stroke-linecap:round;stroke-linejoin:round;" x1="371.806" y1="162.393" x2="371.806" y2="160.941"/>
							</g>
						</g>
					</g>
					<path style="opacity:0.6;fill:#FAFAFA;" d="M278.618,214.426c1.776-1.046,3.216-5.146,3.216-9.157v-12.727
						c0-3.994,2.83-8.897,6.29-10.894l1.642-0.948c3.459-1.997,6.29-0.363,6.29,3.631v21.811c0,3.994,2.83,5.628,6.29,3.631
						l3.032-1.751c1.762-1.017,3.964,0.254,3.964,2.289l0,0c0,2.018,2.171,3.292,3.933,2.307l3.134-1.752
						c3.443-2.058,6.233-6.979,6.233-10.99v-22.084c0-3.994,2.854-8.855,6.342-10.802l1.554-0.867
						c3.488-1.947,6.342-0.271,6.342,3.723v3.643c0,3.994,2.83,5.628,6.29,3.631l1.666-0.962c3.459-1.997,6.29-0.363,6.29,3.631
						v3.643c0,3.994,2.83,5.628,6.29,3.631l0.773-0.446c3.459-1.997,6.29-6.899,6.29-10.894v-3.643c0-4.011,1.641-8.21,3.665-9.378
						l3.665-2.116v36.336l-96.403,55.658v-36.261C275.403,216.321,276.842,215.473,278.618,214.426z"/>
					
						<path style="fill:none;stroke:#FAFAFA;stroke-width:0.9683;stroke-linecap:round;stroke-linejoin:round;stroke-miterlimit:10;" d="
						M275.403,216.321c0,0,1.44-0.848,3.216-1.894s3.216-5.146,3.216-9.157v-12.727c0-3.994,2.83-8.897,6.29-10.894l1.642-0.948
						c3.459-1.997,6.29-0.363,6.29,3.631v21.811c0,3.994,2.83,5.628,6.29,3.631l3.032-1.751c1.762-1.017,3.964,0.254,3.964,2.289
						l0,0c0,2.018,2.171,3.292,3.933,2.307l3.134-1.752c3.443-2.058,6.233-6.979,6.233-10.99v-22.084
						c0-3.994,2.854-8.855,6.342-10.802l1.554-0.867c3.488-1.947,6.342-0.271,6.342,3.723v3.643c0,3.994,2.83,5.628,6.29,3.631
						l1.666-0.962c3.459-1.997,6.29-0.363,6.29,3.631v3.643c0,3.994,2.83,5.628,6.29,3.631l0.773-0.446
						c3.459-1.997,6.29-6.899,6.29-10.894v-3.643c0-4.011,1.641-8.21,3.665-9.378l3.665-2.116"/>
					<path style="fill:#FAFAFA;" d="M289.175,178.205c1.086-0.627,1.967-0.119,1.967,1.135c0,1.254-0.88,2.779-1.967,3.406
						c-1.086,0.627-1.967,0.119-1.967-1.135S288.088,178.832,289.175,178.205z"/>
					<path style="fill:#37474F;" d="M344.263,173.727c1.086-0.627,1.967-0.119,1.967,1.135s-0.88,2.779-1.967,3.406
						c-1.086,0.627-1.967,0.119-1.967-1.135C342.296,175.879,343.176,174.354,344.263,173.727z"/>
					<path style="fill:#37474F;" d="M303.351,206.431c1.086-0.627,1.967-0.119,1.967,1.135c0,1.254-0.881,2.779-1.967,3.407
						c-1.086,0.627-1.967,0.119-1.967-1.136C301.384,208.583,302.264,207.058,303.351,206.431z"/>
				</g>
			</g>
			<path id="XMLID_30691_" style="fill:#B16668;" d="M366.392,103.73c0.921,0.127,3.526,0.858,4.394,1.166
				c2.21,0.786,2.977,1.999,3.623,4.085c0.306,0.988,0.295,2.196,0.163,3.219c-0.038,0.29-0.176,0.665-0.437,0.972
				c-0.358,0.419-0.783,0.764-1.267,1.028c-2.007,1.093-3.569,1.786-5.392,0.372c-1.132-0.878-2.185-1.883-3.382-2.676
				c-0.886-0.587-1.934-0.901-3.017-1.225c-1.231-0.369-2.48-0.45-3.765-0.507c-0.835-0.037-2.052,0.633-2.758,1.041
				c-0.45-1.16-0.353-2.224,0.555-3.055c1.687-1.544,4.343-3.795,6.344-4.419C363.198,103.187,364.573,103.48,366.392,103.73z"/>
		</g>
		<g id="XMLID_261_">
			<g id="Character_7_">
				<g id="XMLID_363_">
					<g id="Botom_4_">
						<g id="XMLID_503_">
							<g id="XMLID_505_">
								<path id="XMLID_592_" style="fill:#B16668;" d="M446.408,301.719c-2.519,1.45-5.355,1.423-8.437,0.251l-2.045-16.55
									l10.027,1.02L446.408,301.719z"/>
								<path id="XMLID_591_" style="fill:#B16668;" d="M415.489,292.709c-2.022,4.739-5.963,3.56-10.45,0.698l0.276-16.701
									l10.605-0.316L415.489,292.709z"/>
								<g>
									<path id="XMLID_590_" style="fill:#263238;" d="M428.186,317.981c-0.274,0.273-0.135,2.081,0.19,2.56
										c0.349,0.513,2.31,2.088,5.778,2.233c3.313,0.138,6.252-0.395,8.156-1.686c1.904-1.29,2.803-2.677,2.93-4.566
										c0.127-1.889-0.137-3.699,0.718-5.176c0.789-1.363,2.065-2.911,2.331-3.645c0.579-1.597-0.092-3.836-0.092-3.836
										L428.186,317.981z"/>
									<path id="XMLID_589_" style="fill:#455A64;" d="M436.767,301.273c-0.035,0.7-0.133,1.398-0.341,2.106
										c-0.436,1.475-1.123,2.871-1.901,4.203c-0.401,0.686-0.826,1.36-1.321,1.986c-0.965,1.22-2.177,2.234-3.202,3.406
										c-1.025,1.173-1.883,2.584-1.921,4.119c-0.064,2.597,2.777,3.395,4.955,3.716c2.326,0.343,4.792,0.146,7.031-0.563
										c2.491-0.789,4.246-2.789,4.589-5.308c0.098-0.723,0.032-1.458,0.096-2.185c0.145-1.658,0.956-3.194,1.882-4.596
										c0.537-0.814,1.124-1.61,1.474-2.515c0.628-1.625,0.033-3.415-0.447-5.001c-0.415-1.37-0.884-2.92-1.366-2.775
										c0.006,0.278,0.037,0.575-0.09,0.833c-0.15,0.305-0.268,0.475-0.358,0.828c-0.094,0.368-0.203,0.733-0.362,1.08
										c-0.242,0.528-0.608,1.016-1.113,1.304c-0.062-0.978-0.123-1.956-0.185-2.934c-0.019-0.303-0.048-0.63-0.252-0.855
										c-0.206-0.228-0.535-0.288-0.839-0.335c-1.842-0.286-3.718-0.573-5.561-0.294c-0.276,0.042-0.581,0.115-0.735,0.348
										c-0.127,0.191-0.117,0.438-0.104,0.666C436.753,299.448,436.813,300.362,436.767,301.273z"/>
									<path id="XMLID_588_" style="fill:#F5F5F5;" d="M434.191,308.136c0.944-0.752,3.107-0.826,4.294-0.735
										c1.486,0.115,2.701,0.598,3.398,1.08c0.309,0.214,0.73,0.163,0.988-0.108l0,0c0.31-0.325,0.266-0.843-0.106-1.1
										c-0.738-0.51-2.066-1.218-3.826-1.289c-2.917-0.118-3.756,0.406-3.756,0.406S433.88,307.285,434.191,308.136z"/>
									<path id="XMLID_587_" style="fill:#F5F5F5;" d="M432.05,310.858c1.193-0.754,3.575-0.721,4.762-0.63
										c1.486,0.115,2.611,0.664,3.307,1.146c0.309,0.214,0.73,0.163,0.988-0.108l0,0c0.31-0.325,0.266-0.843-0.106-1.1
										c-0.738-0.51-2.151-1.327-3.91-1.398c-2.917-0.118-3.658,0.499-3.658,0.499S432.219,309.78,432.05,310.858z"/>
									<path id="XMLID_586_" style="fill:#F5F5F5;" d="M440.015,303.164c-2.018-0.148-2.864,0.103-3.65,0.416
										c-0.505,0.302-0.818,1.123-0.482,1.318c0.637-0.379,1.8-0.563,3.231-0.542c0.96,0.014,2.18,0.366,3.174,0.771
										c0.252,0.103,0.552,0.249,0.814,0.384c0.354,0.183,0.793,0.032,0.949-0.326l0,0c0.133-0.304,0.017-0.658-0.277-0.824
										C443.057,303.957,441.646,303.283,440.015,303.164z"/>
								</g>
								<g>
									<path id="XMLID_585_" style="fill:#263238;" d="M387.971,304.207c-0.255,0.576-0.144,1.639,0.198,2.304
										c0.342,0.666,3.929,2.549,8.677,2.087c4.748-0.463,7.958-2.477,9.736-3.732c1.778-1.255,3.66-1.535,6.012-1.74
										c2.352-0.205,5.41-1.472,5.895-2.589c0.484-1.117-0.167-2.997-0.167-2.997L387.971,304.207z"/>
									<path id="XMLID_584_" style="fill:#455A64;" d="M406.655,289.008c-0.416-0.139-0.832-0.277-1.248-0.416
										c-0.229-0.076-0.482-0.152-0.706-0.06c-0.301,0.124-0.409,0.486-0.481,0.803c-0.147,0.648-0.19,1.484-0.458,2.082
										c-0.243,0.543-0.86,1.053-1.293,1.442c-1.125,1.011-2.428,1.815-3.734,2.568c-1.53,0.882-3.033,1.575-4.616,2.345
										c-1.615,0.785-3.774,1.299-5.029,2.201c-1.83,1.314-1.977,4.483,0.188,5.668c1.867,1.022,6.73,2.046,11.751,0.461
										c2.735-0.864,5.71-3.902,9.322-4.293c2.297-0.249,6.632-1.025,8.062-2.818c0.525-0.792-0.28-3.228-0.944-5.333
										c-0.724-2.297-1.082-5.912-1.843-5.685c-0.031,0.772-0.684,1.238-1.069,1.896c-0.34,0.581-0.522,1.239-0.772,1.865
										c-0.25,0.626-0.593,1.247-1.154,1.62c-0.561,0.373-1.385,0.419-1.868-0.051c-0.699-0.679-0.335-1.921-0.853-2.747
										c-0.352-0.56-1.028-0.806-1.655-1.015C407.721,289.362,407.188,289.185,406.655,289.008z"/>
									<path id="XMLID_583_" style="fill:#F5F5F5;" d="M400.849,294.11c0,0,0.305-0.893,1.667-1.189
										c1.042-0.226,2.915,0.491,4.094,1.404c0.482,0.374,0.443,1.112-0.082,1.423l0,0c-0.313,0.185-0.703,0.151-0.984-0.08
										C404.769,295.035,403.042,293.893,400.849,294.11z"/>
									<path id="XMLID_582_" style="fill:#F5F5F5;" d="M397.656,296.025c0,0,0.645-1.078,1.984-1.098c0,0,2.738-0.003,4.478,1.525
										c0.444,0.39,0.434,1.076-0.075,1.376l0,0c-0.303,0.178-0.679,0.145-0.948-0.081
										C402.312,297.088,400.74,295.702,397.656,296.025z"/>
									<path id="XMLID_581_" style="fill:#F5F5F5;" d="M394.119,297.771c0,0,0.726-0.98,2.064-1c0,0,2.552,0.019,4.292,1.547
										c0.444,0.39,0.435,1.076-0.074,1.376l0,0c-0.303,0.178-0.679,0.145-0.948-0.081
										C398.67,298.954,397.204,297.448,394.119,297.771z"/>
								</g>
								<path id="XMLID_515_" style="fill:#37474F;" d="M442.508,177.722c1.139,18.142,2.982,61.072,2.982,61.072
									c0.259,2.254,1.091,7.671,1.503,15.804c0.596,11.794-0.338,37.827-0.338,37.827s-4.841,2.794-10.068,0.797
									c0,0-6.709-37.128-8.855-48.709c-1.885-10.176-5.561-32.247-5.561-32.247l-1.719,27.701c0,0,0.588,7.089-0.4,14.983
									c-0.673,5.377-3.914,28.733-3.914,28.733s-5.705,1.821-11.385,0.089c0,0-1.039-38.113-1.282-43.068
									c-0.277-5.648-1.457-66.626-1.457-66.626L442.508,177.722z"/>
								<path style="fill:#263238;" d="M422.17,212.266l-3.129-14.8c0,0-7.465-0.429-11.7-4.458c0,0,0.853,4.048,10.286,6.211
									l3.132,14.977l0.311,13.925L422.17,212.266z"/>
							</g>
						</g>
					</g>
					<g id="XMLID_366_">
						<path id="XMLID_501_" style="fill:#27DEBF;" d="M439.084,123.731c3.566,0.634,3.801,2.4,4.581,5.937
							c0.388,1.756,1.252,5.53,0.909,8.693l-2.654,20.908l0.911,24.081c-5.739,6.243-28.687,8.246-41.219-0.906
							c0,0,0.136-39.56,0.714-45.909c1.01-11.092,6.041-15.035,13.42-15.008l12.626,1.075L439.084,123.731z"/>
						<g id="XMLID_369_">
							<path id="XMLID_495_" style="fill:#263238;" d="M425.743,95.693c-0.021,6.189-5.056,11.19-11.246,11.168
								c-6.19-0.021-11.19-5.056-11.169-11.246c0.021-6.19,5.057-11.19,11.246-11.168C420.764,84.469,425.764,89.504,425.743,95.693
								z"/>
							<g id="XMLID_384_">
								<path style="fill:#263238;" d="M429.25,97.883l2.394-6.424c0,0,1.957-0.328,3.477,1.236
									c1.489,1.534,0.638,6.315-1.24,10.995c0,0-1.845,8.526-2.579,9.925c-0.733,1.4-2.239,1.792-2.239,1.792L429.25,97.883z"/>
								<path id="XMLID_491_" style="fill:#B16668;" d="M429.433,104.07c0.685,0.412,1.668-0.902,2.517-1.784
									c0.849-0.882,3.615-2.082,4.982,0.825c1.393,2.963-1.24,6.862-3.416,7.537c-3.751,1.163-4.305-1.242-4.305-1.242
									l-0.333,13.514c0,0-2.474,5.994-9.12,6.871c-6.646,0.878-5.259-4.594-3.068-7.271l0.025-4.113c0,0-3.397,0.504-5.052,0.242
									c-2.754-0.436-4.48-2.615-5.306-5.601c-1.326-4.795-1.822-8.665-0.651-18.082c1.284-10.322,13.295-10.388,19.767-6.284
									C431.945,92.787,429.433,104.07,429.433,104.07z"/>
								<path id="XMLID_484_" style="fill:#263238;" d="M429.362,104.977c1.084-0.313,1.873-2.046,2.587-2.692
									c1.187-1.072-0.305-10.827-0.305-10.827s1.145-2.419-1.125-4.935c-1.615-1.789-4.323-1.997-8.945-2.74
									c-2.281-0.366-4.971-0.546-7.231-0.966c-2.759-0.513-4.518-1.046-6.723-2.148c-0.403-0.202-0.841-0.424-1.283-0.333
									c-0.357,0.073-0.649,0.35-0.808,0.677c-0.159,0.327-0.199,0.701-0.188,1.065c0.012,0.383,0.078,0.763,0.195,1.128
									c0.069,0.216,0.515,0.874,0.42,1.063c-0.234,0.47-2.012-0.321-2.367-0.427c-0.086-0.025-0.18-0.051-0.261-0.013
									c-0.068,0.031-0.11,0.099-0.144,0.166c-0.573,1.115-0.365,2.671,0.204,3.747c1.315,2.485,3.812,4.353,6.366,5.413
									c2.725,1.132,5.743,1.548,8.673,1.208c1.26-0.146,2.504-0.432,3.698-0.86c-0.057,0.021,0.733,1.176,0.815,1.271
									c0.346,0.403,0.751,0.757,1.196,1.048c0.437,0.286,0.932,0.538,1.44,0.67c0.529,0.138,1.032,0.07,1.326,0.64
									c0.187,0.362,0.203,0.785,0.215,1.193c0.035,1.194,0.071,2.389,0.106,3.583c0.018,0.606,0.038,1.225,0.242,1.796
									c0.204,0.571,0.627,1.099,1.209,1.27C428.917,105.045,429.146,105.04,429.362,104.977z"/>
								<path id="XMLID_385_" style="fill:#9A4A4D;" d="M416.714,118.408c0,0,6.155-1.218,8.309-2.354
									c1.442-0.76,2.632-2.082,2.983-2.931c0,0-0.409,1.824-1.701,3.463c-1.579,2.005-9.597,3.458-9.597,3.458L416.714,118.408z"
									/>
							</g>
							<g id="XMLID_370_">
								<path id="XMLID_383_" style="fill:#263238;" d="M417.624,102.208c-0.002,0.707,0.548,1.281,1.228,1.282
									c0.681,0,1.234-0.572,1.237-1.28c0.002-0.707-0.547-1.281-1.228-1.281C418.181,100.928,417.626,101.501,417.624,102.208z"/>
								<path id="XMLID_382_" style="fill:#263238;" d="M419.096,98.411l2.731,1.771c0.477-0.787,0.253-1.821-0.502-2.31
									C420.571,97.383,419.573,97.624,419.096,98.411z"/>
								<path id="XMLID_378_" style="fill:#9A4A4D;" d="M419.678,109.705l-4.337,1.854c0.561,1.21,1.842,1.813,3.184,1.263
									C419.731,112.329,420.239,110.914,419.678,109.705z"/>
								<path id="XMLID_377_" style="fill:#263238;" d="M406.322,99.753l2.595-1.573c-0.411-0.739-1.325-0.985-2.042-0.551
									C406.159,98.063,405.911,99.015,406.322,99.753z"/>
								<path id="XMLID_373_" style="fill:#263238;" d="M407.339,101.82c-0.003,0.707,0.548,1.281,1.228,1.281
									c0.681,0,1.234-0.573,1.237-1.28c0.003-0.707-0.547-1.281-1.228-1.282C407.896,100.539,407.342,101.113,407.339,101.82z"/>
								<polygon id="XMLID_371_" style="fill:#9A4A4D;" points="414.209,101.158 413.157,109.027 409.141,107.296 								"/>
							</g>
						</g>
					</g>
				</g>
			</g>
			<path id="XMLID_266_" style="fill:#B16668;" d="M439.519,123.818l-14.905,32.188c0,0-20.888-0.656-27.747-1.913
				c-2.337-0.428-1.926-1.719-2.874-4.226c-0.948-2.506-2.3-2.028-2.3-2.028l0.021,3.41c0.078,2.251-3.501,3.398-5.09,4.016
				c-2.618,1.018-5.483,1.667-8.184,2.507c-0.915,0.285-1.91,0.631-2.399,1.454c-0.442,0.745-0.337,1.723,0.083,2.481
				c1.224,2.207,2.881,4.073,5.326,4.364c3.015,0.359,6.367-0.47,9.296-0.992c3.467-0.618,5.901-1.426,9.336-0.969
				c3.295,0.438,8.11,0.983,11.381,1.576c3.769,0.682,11.865,1.977,15.148,2.116c2.366,0.1,3.999,1.071,6.656-3.251
				c1.851-3.01,6.043-10.869,9.599-17.815c3.661-7.151,4.884-11.638,4.691-16.162C447.461,128.273,445.523,124.298,439.519,123.818z
				"/>
			<path style="fill:#455A64;" d="M438.454,123.665c3.07,0.174,5.754,0.617,7.57,2.148c1.816,1.532,3.42,4.107,0.835,13.158
				c-2.585,9.051-12.985,25.848-14.52,27.931c-1.535,2.083-3.792,1.531-8.195,1.062c-4.403-0.469-13.705-2.454-13.705-2.454
				s1.431-6.962,0.81-10.103l13.017,0.284l8.195-20.32C432.463,135.372,435.15,127.354,438.454,123.665z"/>
		</g>
	</g>
</g>
<g id="Character_1">
	<g id="Character_21_">
		<g>
			<g id="XMLID_272_">
				<g id="XMLID_281_">
					<path style="fill:#FFA8A7;" d="M196.142,434.401l-0.437-11.619l9.35-5.61c0,0-0.976,12.22-0.765,13.897
						c0.21,1.678,2.366,2.719,2.762,3.854c0.395,1.135-5.361,13.074-8.74,15.778c-3.379,2.704-9.1-0.437-9.691-1.665
						c-0.59-1.229,2.769-1.246,4.436-2.3c0.595-0.376,1.271-0.885,1.271-0.885C195.273,442.484,196.142,434.401,196.142,434.401z"/>
				</g>
				<g id="XMLID_278_">
					<path style="fill:#37474F;" d="M205.519,432.822c-1.091,0.97-1.867,3.346-3.296,6.611c-1.429,3.264-2.354,6.781-6.161,8.781
						c-2.579,1.355-6.35,0.36-4.471-0.47c1.458-0.644,2.738-1.895,2.738-1.895s-1.723,1.251-4.43,1.618
						c-2.119,0.287-6.496,1.587-3.657,4.804c1.095,1.241,3.415,1.937,8.003,1.97c4.354,0.031,6.36-1.327,7.9-4.488
						c1.869-3.836,5.956-7.866,7.306-10.03C211.084,437.104,208.197,433.421,205.519,432.822z"/>
				</g>
			</g>
			<g id="XMLID_328_">
				<g id="XMLID_334_">
					<path style="fill:#FFA8A7;" d="M262.292,403.507l-7.043-7.462l5.39-6.743l6.171,6.222c1.658,1.256,3.181,0.796,4.21,1.416
						c1.029,0.621,4.225,13.484,3.353,17.722c-0.873,4.238-7.281,5.477-8.52,4.909c-1.239-0.568,1.334-2.728,1.944-4.603
						c0.217-0.669,0.412-1.493,0.412-1.493C266.786,410.281,262.292,403.507,262.292,403.507z"/>
				</g>
				<g id="XMLID_333_">
					<path style="fill:#37474F;" d="M268.498,396.303c-0.22,1.444,0.701,3.768,1.686,7.192c0.985,3.424,2.52,6.721,0.868,10.692
						c-1.119,2.689-4.656,4.333-3.74,2.495c0.71-1.426,0.896-3.207,0.896-3.207s-0.527,2.063-2.375,4.074
						c-1.447,1.574-4.095,5.621,0.195,5.701c2.016,0.037,5.182-0.382,7.836-2.55c2.445-1.998,3.687-5.797,2.853-9.213
						c-1.012-4.146-0.441-9.856-0.785-12.384C275.515,396.042,270.941,395.053,268.498,396.303z"/>
				</g>
			</g>
			<g>
				<g id="XMLID_271_">
					<path style="fill:#37474F;" d="M194.249,314.617c0,0,19.145,45.599,21.215,50.695c2.072,5.096,3.776,7.135,6.83,9.249
						c3.056,2.112,35.65,24.417,35.65,24.417c6.079-2.523,6.204-6.479,6.204-6.479s-16.071-20.397-20.345-24.163
						c-4.276-3.767-11.123-5.956-11.123-5.956l-4.567-33.09c-1.341-6.505-0.512-13.693-10.189-24.77l0,0L194.249,314.617z"/>
				</g>
				<path style="fill:#37474F;" d="M217.923,304.519l-32.802,3.782c0,0,0.298,26.198,1.896,47.338
					c1.766,23.366,8.499,70.438,8.499,70.438c4.576,0.913,9.241-1,9.241-1s4.235-34.116,4.235-39.005
					c0-7.52-2.396-14.333-2.396-14.333c0.646-10.242,4.435-24.103,5-35.956c8.628-3.561,11.786-8.359,13.006-14.798
					C225.78,314.77,220.242,308.301,217.923,304.519z"/>
				<g id="XMLID_6606_">
					<path style="fill:#263238;" d="M209.652,351.358l2.821-17.557c0,0,8.876-3.172,12.293-7.782c0,0-1.082,6.702-9.464,9.89
						c-0.542,0.678-4.767,17.559-4.767,17.559L209.652,351.358z"/>
				</g>
			</g>
		</g>
		<g>
			<path style="fill:#FFA8A7;" d="M205.384,216.462c-3.711-2.949-5.661-4.773-8.629-7.483c-1.677-1.531-3.158,0.278-2.99,0.23
				l5.923,15.799c0.88,0.727,1.552,0.804,2.68,2.294c1.128,1.49,5.012,24.059,5.012,24.059l10.847-2.889
				C218.227,248.472,210.483,220.514,205.384,216.462z"/>
			<g id="Tab_3_">
				<g id="XMLID_268_">
					<path id="XMLID_356_" style="fill:#27DEBF;" d="M119.682,290.673l-0.745-0.43c-1.191-0.688-2.157-2.361-2.157-3.737l0-74.805
						c0-1.376,0.966-3.049,2.157-3.737l73.559-42.57c1.191-0.688,3.123-0.688,4.314,0l0.745,0.43
						c1.191,0.688,2.157,2.361,2.157,3.736l0,74.806c0,1.376-0.966,3.048-2.157,3.736l-73.559,42.57
						C122.805,291.361,120.873,291.361,119.682,290.673z"/>
					<path id="XMLID_355_" style="opacity:0.4;fill:#FFFFFF;" d="M199.691,169.214c-0.147-1.118-1.051-1.525-2.135-0.904
						l-73.564,42.58c-0.599,0.339-1.13,0.938-1.525,1.604l-5.05-2.915c0.384-0.678,0.926-1.265,1.525-1.616l73.553-42.568
						c1.197-0.689,3.129-0.689,4.316,0l0.746,0.429C198.641,166.457,199.556,167.915,199.691,169.214z"/>
					<path id="XMLID_344_" style="opacity:0.1;" d="M123.63,290.843c-1.186,0.508-2.869,0.452-3.943-0.17l-0.757-0.429
						c-1.186-0.689-2.147-2.361-2.147-3.739v-74.801c0-0.689,0.237-1.457,0.633-2.124l5.05,2.915
						c-0.384,0.678-0.633,1.446-0.633,2.124v74.813C121.834,290.662,122.614,291.238,123.63,290.843z"/>
				</g>
				<g>
					<g>
						<path style="fill:#37474F;" d="M149.118,219.255c-7.161,8.628-12.062,20.673-12.062,31.269c0,4.815,1.018,8.766,2.778,11.665
							l19.241-24.401L149.118,219.255z"/>
						<path style="fill:#27DEBF;" d="M169.015,207.711c-2.985-0.138-6.368,0.759-9.94,2.83c-3.59,2.071-6.972,5.091-9.957,8.714
							l9.957,18.534L169.015,207.711z"/>
						<path style="opacity:0.45;" d="M169.015,207.711c-2.985-0.138-6.368,0.759-9.94,2.83c-3.59,2.071-6.972,5.091-9.957,8.714
							l9.957,18.534L169.015,207.711z"/>
						<path style="fill:#27DEBF;" d="M179.059,214.751c-2.088-4.349-5.643-6.833-10.043-7.041l-9.94,30.078L179.059,214.751z"/>
						<path style="fill:#27DEBF;" d="M179.059,214.751l-19.983,23.037l-19.241,24.401c3.779,6.143,10.975,7.628,19.241,2.847
							c12.166-7.023,22.037-24.918,22.037-39.983C181.112,220.946,180.37,217.478,179.059,214.751z"/>
					</g>
					<g>
						<path style="fill:#455A64;" d="M179.059,214.751c-2.088-4.349-5.643-6.833-10.043-7.041l-9.94,30.078L179.059,214.751z"/>
						<path style="fill:#27DEBF;" d="M179.059,214.751l-19.983,23.037l-19.241,24.401c3.779,6.143,10.975,7.628,19.241,2.847
							c12.166-7.023,22.037-24.918,22.037-39.983C181.112,220.946,180.37,217.478,179.059,214.751z"/>
						<path style="opacity:0.25;" d="M179.059,214.751l-19.983,23.037l-19.241,24.401c3.779,6.143,10.975,7.628,19.241,2.847
							c12.166-7.023,22.037-24.918,22.037-39.983C181.112,220.946,180.37,217.478,179.059,214.751z"/>
					</g>
					<g>
						
							<path style="fill:none;stroke:#FFFFFF;stroke-width:1.0194;stroke-linecap:round;stroke-linejoin:round;stroke-miterlimit:10;" d="
							M149.118,219.255c-7.161,8.628-12.062,20.673-12.062,31.269c0,4.815,1.018,8.766,2.778,11.665l19.241-24.401L149.118,219.255z
							"/>
						
							<path style="fill:none;stroke:#FFFFFF;stroke-width:1.0194;stroke-linecap:round;stroke-linejoin:round;stroke-miterlimit:10;" d="
							M169.015,207.711c-2.985-0.138-6.368,0.759-9.94,2.83c-3.59,2.071-6.972,5.091-9.957,8.714l9.957,18.534L169.015,207.711z"/>
						
							<path style="fill:none;stroke:#FFFFFF;stroke-width:1.0194;stroke-linecap:round;stroke-linejoin:round;stroke-miterlimit:10;" d="
							M179.059,214.751c-2.088-4.349-5.643-6.833-10.043-7.041l-9.94,30.078L179.059,214.751z"/>
						
							<path style="fill:none;stroke:#FFFFFF;stroke-width:1.0194;stroke-linecap:round;stroke-linejoin:round;stroke-miterlimit:10;" d="
							M179.059,214.751l-19.983,23.037l-19.241,24.401c3.779,6.143,10.975,7.628,19.241,2.847
							c12.166-7.023,22.037-24.918,22.037-39.983C181.112,220.946,180.37,217.478,179.059,214.751z"/>
					</g>
				</g>
				<path style="fill:#455A64;" d="M145.612,206.151l26.943-15.546c0.451-0.261,0.818-0.049,0.818,0.472v1.064
					c0,0.521-0.366,1.156-0.818,1.416l-26.943,15.546c-0.452,0.261-0.818,0.049-0.818-0.472v-1.064
					C144.795,207.046,145.161,206.412,145.612,206.151z"/>
			</g>
			<path style="fill:#FFA8A7;" d="M155.248,291.278c-6.984,2.013-8.772,0.92-11.194-1.745c-1.179-1.298-16.753-20.956-18.65-23.11
				c-1.897-2.154-2.113-2.722-4.955-4.064c-2.828-1.348-3.719-1.553-5.088-3.224c-1.392-1.729-0.779-2.444-0.847-3.514
				c-0.095-1.481-0.941-2.211-1.04-3.32c-0.125-1.385,0.508-2.007,0.478-2.636c-0.054-0.992-0.594-1.335-0.653-3.152
				c-0.029-0.63,2.574-3.281,3.48-4.28v4.885c2.865,4.051,7.492,3.672,7.993,3.103c0.501-0.569,0.412-3.488,1.341-5.155
				c0.897-1.62,2.885-2.27,2.72-0.635c-0.083,0.944,0.17,4.237,0.216,5.721c0.046,1.484,0.178,3.694,1.309,5.661
				c1.495,2.634,23.782,23.667,23.782,23.667"/>
			<g id="XMLID_327_">
				<path style="fill:#FFA8A7;" d="M199.683,219.56c0,0-0.995-1.514-2.741-2.461c-1.746-0.947-2.556-2.445-2.118-3.433
					c0.325-0.732,1.541-0.015,2.615,0.407c1.074,0.421,4.064,1.336,5.544,2.666c1.48,1.331,1.909,2.352,3.445,2.213
					c0,0-1.053,1.325-3.177,1.473C201.127,220.572,199.683,219.56,199.683,219.56z"/>
			</g>
		</g>
		<g id="XMLID_269_">
			<path style="fill:#FFA8A7;" d="M138.855,282.764c10.619-4.575,21.443-8.189,32.192-12.449c5.045-2,8.161-3.232,12.019-4.361
				c3.66-1.071,7.353-0.936,11.011-1.588c0.44-0.094,0.911-0.173,1.397-0.251c6.202-1.146,15.575-2.873,18.118-3.328
				c0.236-0.047,0.455-0.078,0.659-0.126c0.581-0.063,1.193-0.031,1.79,0.063c1.853,0.456,3.297,2.072,3.831,3.266
				c1.021,2.261,1.366,4.255,0.628,8.101c-0.204,1.021-1.679,4.078-2.622,7.469c-1.727,6.233-3.329,14.134-4.444,17.102
				c-0.063,0.126-0.094,0.236-0.142,0.33l4.632,7.536c0,0-3.109,3.847-12.34,6.531c-9.247,2.685-20.457-2.763-20.457-2.763
				s-2.371-12.435-2.811-15.92c-0.031-0.204-0.079-0.518-0.126-0.879c-0.094-0.738-0.879-5.868-0.879-5.868
				c-0.341-1.015-2.854-0.676-10.584,1.594c-7.73,2.271-18.027,4.661-18.027,4.661L138.855,282.764z"/>
			<g>
				<path style="fill:#FFA8A7;" d="M219.669,254.145c-2.946-11.503-5.744-23.037-5.744-23.037l-11.551,3.84l8.506,36.271
					l9.621,0.871C222.583,264.84,221.275,260.419,219.669,254.145z"/>
				<path style="fill:#455A64;" d="M207.418,261.657c0.671-0.1,0.69-0.802,0.276-2.975c-0.414-2.173-1.056-4.921-1.056-4.921
					s7.762-3.291,12.886-2.162c0,0,0.846,3.121,2.053,9.458c1.206,6.338-0.129,9.572-3.89,19.209L207.418,261.657z"/>
			</g>
			<g>
				<g id="XMLID_326_">
					<polygon style="fill:#FFA8A7;" points="191.999,257.054 193.352,268.96 205.086,270.314 203.394,254.519 					"/>
				</g>
				<g id="XMLID_6189_">
					<path style="fill:#263238;" d="M184.947,238.437c-1.247-0.692-2.135-2.017-2.265-3.441c0-1.623,0.505-2.714,1.659-3.821
						c-1.155-1.179-1.768-2.89-1.546-4.525c0.222-1.635,1.302-3.147,2.81-3.817c1.508-0.67,3.396-0.439,4.651,0.632
						c-0.22-1.476,0.67-2.98,1.954-3.74c1.284-0.76,2.881-0.856,4.34-0.541c1.459,0.315,2.806,1.009,4.1,1.754
						c1.145,0.66,2.468,1.494,3.691,2.024c1.196,0.519,2.756,0.882,3.982,1.306c4.474,1.548,10.884,5.755,9.553,17.211
						c-0.783,6.735-19.216,10.418-19.115,15.072c-0.026-0.031-0.052-0.062-0.078-0.093c-1.674-2.01-3.349-4.02-5.023-6.031
						c-1.274-1.529-2.547-3.058-3.821-4.587c-1.192-1.431-2.572-2.986-2.663-4.942c-0.022-0.477,0.014-0.992-0.247-1.392
						c-0.316-0.485-0.946-0.624-1.485-0.835C185.273,238.604,185.107,238.525,184.947,238.437z"/>
				</g>
				<g id="XMLID_6146_">
					<path style="fill:#F28F8F;" d="M183.856,241.895c0,0-2.845,3.914-2.516,4.356c0.329,0.442,2.004,0.971,2.004,0.971
						L183.856,241.895z"/>
				</g>
				<g id="XMLID_6101_">
					<path style="fill:#FFA8A7;" d="M192.57,229.48c-2.652,1.225-7.242,3.502-8.816,13.002c-1.615,9.752-0.045,12.966,1.235,14.311
						c0.864,0.907,5.725,1.128,8.186,0.482c3.08-0.809,10.048-3.184,13.358-8.107c3.893-5.793,4.993-13.694,0.94-16.99
						C201.77,227.537,194.814,228.443,192.57,229.48z"/>
				</g>
				<g id="XMLID_611_">
					<path style="fill:#263238;" d="M191.379,228.899c-0.535,0.224-1.699,0.12-2.135,0.504c-1.084,0.955-1.63,2.685-1.444,4.117
						c0.186,1.432,1.145,2.931,2.744,3.467c-0.395,1.539-0.247,3.553-0.193,3.886c0.209,1.302,0.455,2.957,1.238,3.599
						c0,0,1.739-3.42,4.695-2.286c2.976,1.142,2.521,5.156,0.054,7.109c-2.469,1.953-3.825,0.357-3.825,0.357
						s-0.26,4.867,3.43,6.899c0,0,3.126,2.672,7.881,1.984c2.605-3.602,6.09-4.965,9.025-7.838
						c7.593-7.432,7.069-18.443-3.462-22.473c-3.056-1.169-6.358-1.699-9.62-1.329c-1.212,0.137-2.41,0.395-3.57,0.77
						c-0.482,0.156-0.957,0.333-1.424,0.529c-0.611,0.255-1.044,0.198-1.691,0.269C192.499,228.527,191.921,228.672,191.379,228.899
						z"/>
				</g>
				<path style="fill:#F28F8F;" d="M184.989,256.792c0.746,0.783,4.471,1.054,7.059,0.697l-0.182-1.744c0,0-1.577,0.629-3.931,1.011
					c-2.289,0.371-3.056-0.107-3.096-0.133C184.889,256.68,184.939,256.74,184.989,256.792z"/>
			</g>
			<g>
				<path style="fill:#27DEBF;" d="M217.526,283.332c-1.667,6.171-3.032,10.513-4.09,13.329c-0.063,0.126-0.094,0.236-0.142,0.33
					l4.632,7.536c0,0-3.109,3.847-12.34,6.531c-9.247,2.685-20.441-1.075-20.441-1.075s-3.955-23.913-4.049-24.337
					c11.822-5.275,9.277-20.915,9.277-20.915c0.832-0.141,4.852-0.678,5.338-0.772c5.417-0.958,8.116-1.837,13.064-2.496
					C212.865,260.917,220.24,273.281,217.526,283.332z"/>
				<path style="opacity:0.2;" d="M214.394,293.803c-0.118,0.272-9.132,5.413-11.861,6.166c4.301-0.213,7.876-1.224,10.768-2.984
					L214.394,293.803z"/>
			</g>
			<path style="fill:#455A64;" d="M190.373,264.731c-3.053,0.137-3.923,0.086-7.789,1.155c-3.866,1.069-15.038,5.794-15.038,5.794
				s-1.55,10.67,3.182,15.543c0,0,4.836-1.12,7.328-1.591c2.122-0.401,2.58-0.702,3.039,0.014c0,0,4.849-0.829,7.75-6.325
				C191.747,273.824,191.391,266.782,190.373,264.731z"/>
		</g>
	</g>
</g>
</svg>
